<svg xmlns="http://www.w3.org/2000/svg" xmlns:xlink="http://www.w3.org/1999/xlink" width="126" zoomAndPan="magnify" viewBox="0 0 94.5 54" height="72" preserveAspectRatio="xMidYMid meet" version="1.0"><defs><g/></defs><g fill="#ffffff" fill-opacity="1"><g transform="translate(0.497587, 25.981699)"><g><path d="M 12.296875 -6.9375 C 12.328125 -7.050781 12.316406 -7.269531 12.265625 -7.59375 C 12.222656 -7.925781 12.175781 -8.148438 12.125 -8.265625 C 12.0625 -8.492188 11.992188 -8.679688 11.921875 -8.828125 C 11.859375 -8.984375 11.757812 -9.148438 11.625 -9.328125 C 11.320312 -9.691406 11.050781 -9.960938 10.8125 -10.140625 C 10.570312 -10.328125 10.210938 -10.46875 9.734375 -10.5625 C 9.578125 -10.601562 9.460938 -10.617188 9.390625 -10.609375 C 9.328125 -10.597656 9.226562 -10.59375 9.09375 -10.59375 C 8.925781 -10.59375 8.835938 -10.585938 8.828125 -10.578125 C 8.816406 -10.566406 8.734375 -10.523438 8.578125 -10.453125 C 8.460938 -10.390625 8.332031 -10.269531 8.1875 -10.09375 C 8.039062 -9.925781 7.921875 -9.785156 7.828125 -9.671875 C 7.617188 -9.347656 7.457031 -8.984375 7.34375 -8.578125 C 7.226562 -8.171875 7.113281 -7.785156 7 -7.421875 C 6.976562 -7.304688 6.9375 -7.125 6.875 -6.875 C 6.820312 -6.625 6.765625 -6.359375 6.703125 -6.078125 C 6.648438 -5.804688 6.613281 -5.550781 6.59375 -5.3125 C 6.570312 -5.070312 6.5625 -4.894531 6.5625 -4.78125 C 6.601562 -4.46875 6.675781 -4.328125 6.78125 -4.359375 C 6.882812 -4.390625 7.15625 -4.382812 7.59375 -4.34375 C 8.175781 -4.226562 8.800781 -4.21875 9.46875 -4.3125 C 10.144531 -4.414062 10.75 -4.628906 11.28125 -4.953125 C 11.507812 -5.066406 11.65625 -5.175781 11.71875 -5.28125 C 11.789062 -5.382812 11.882812 -5.550781 12 -5.78125 C 12.082031 -5.957031 12.140625 -6.144531 12.171875 -6.34375 C 12.210938 -6.550781 12.253906 -6.75 12.296875 -6.9375 Z M 6.796875 -19.8125 C 6.816406 -19.65625 6.832031 -19.457031 6.84375 -19.21875 C 6.863281 -18.976562 6.859375 -18.78125 6.828125 -18.625 C 6.804688 -18.46875 6.804688 -18.28125 6.828125 -18.0625 C 6.859375 -17.84375 6.875 -17.65625 6.875 -17.5 C 6.875 -17.269531 6.863281 -17.054688 6.84375 -16.859375 C 6.832031 -16.671875 6.828125 -16.460938 6.828125 -16.234375 C 6.804688 -16.023438 6.804688 -15.816406 6.828125 -15.609375 C 6.859375 -15.410156 6.847656 -15.207031 6.796875 -15 C 6.773438 -14.726562 6.785156 -14.546875 6.828125 -14.453125 C 6.878906 -14.359375 6.9375 -14.316406 7 -14.328125 C 7.070312 -14.347656 7.160156 -14.394531 7.265625 -14.46875 C 7.367188 -14.550781 7.460938 -14.625 7.546875 -14.6875 C 7.617188 -14.738281 7.675781 -14.796875 7.71875 -14.859375 C 7.769531 -14.929688 7.816406 -14.988281 7.859375 -15.03125 C 7.972656 -15.125 8.101562 -15.226562 8.25 -15.34375 C 8.394531 -15.457031 8.515625 -15.570312 8.609375 -15.6875 C 8.722656 -15.800781 8.851562 -15.894531 9 -15.96875 C 9.144531 -16.050781 9.273438 -16.148438 9.390625 -16.265625 C 9.640625 -16.492188 9.820312 -16.726562 9.9375 -16.96875 C 10.050781 -17.207031 10.15625 -17.382812 10.25 -17.5 C 10.289062 -17.582031 10.328125 -17.640625 10.359375 -17.671875 C 10.398438 -17.710938 10.457031 -17.789062 10.53125 -17.90625 C 10.570312 -18 10.609375 -18.0625 10.640625 -18.09375 C 10.679688 -18.125 10.722656 -18.195312 10.765625 -18.3125 C 10.785156 -18.382812 10.8125 -18.484375 10.84375 -18.609375 C 10.882812 -18.734375 10.90625 -18.828125 10.90625 -18.890625 C 10.875 -19.171875 10.851562 -19.390625 10.84375 -19.546875 C 10.832031 -19.703125 10.789062 -19.828125 10.71875 -19.921875 C 10.65625 -20.015625 10.554688 -20.097656 10.421875 -20.171875 C 10.285156 -20.253906 10.09375 -20.363281 9.84375 -20.5 C 9.65625 -20.613281 9.457031 -20.664062 9.25 -20.65625 C 9.050781 -20.644531 8.859375 -20.640625 8.671875 -20.640625 C 8.492188 -20.617188 8.289062 -20.601562 8.0625 -20.59375 C 7.832031 -20.582031 7.628906 -20.5625 7.453125 -20.53125 C 7.203125 -20.488281 7.019531 -20.429688 6.90625 -20.359375 C 6.789062 -20.296875 6.753906 -20.113281 6.796875 -19.8125 Z M 9.8125 -24.53125 C 9.925781 -24.53125 10.082031 -24.515625 10.28125 -24.484375 C 10.488281 -24.453125 10.707031 -24.40625 10.9375 -24.34375 C 11.164062 -24.289062 11.378906 -24.226562 11.578125 -24.15625 C 11.785156 -24.09375 11.9375 -24.035156 12.03125 -23.984375 C 12.394531 -23.828125 12.703125 -23.664062 12.953125 -23.5 C 13.203125 -23.34375 13.472656 -23.140625 13.765625 -22.890625 C 13.992188 -22.691406 14.191406 -22.421875 14.359375 -22.078125 C 14.535156 -21.734375 14.679688 -21.375 14.796875 -21 C 14.910156 -20.625 15 -20.25 15.0625 -19.875 C 15.132812 -19.5 15.171875 -19.148438 15.171875 -18.828125 C 15.171875 -18.390625 15.113281 -18.023438 15 -17.734375 C 14.882812 -17.441406 14.738281 -17.097656 14.5625 -16.703125 C 14.425781 -16.390625 14.273438 -16.082031 14.109375 -15.78125 C 13.953125 -15.488281 13.75 -15.21875 13.5 -14.96875 C 13.382812 -14.851562 13.25 -14.726562 13.09375 -14.59375 C 12.945312 -14.457031 12.851562 -14.332031 12.8125 -14.21875 C 12.75 -14.03125 12.800781 -13.882812 12.96875 -13.78125 C 13.132812 -13.6875 13.273438 -13.601562 13.390625 -13.53125 C 13.523438 -13.457031 13.65625 -13.359375 13.78125 -13.234375 C 13.90625 -13.109375 14.023438 -12.988281 14.140625 -12.875 C 14.285156 -12.769531 14.421875 -12.671875 14.546875 -12.578125 C 14.671875 -12.484375 14.800781 -12.378906 14.9375 -12.265625 C 15.457031 -11.785156 15.890625 -11.210938 16.234375 -10.546875 C 16.578125 -9.890625 16.769531 -9.222656 16.8125 -8.546875 C 16.851562 -8.066406 16.898438 -7.671875 16.953125 -7.359375 C 17.015625 -7.054688 17.050781 -6.75 17.0625 -6.4375 C 17.070312 -6.132812 17.023438 -5.800781 16.921875 -5.4375 C 16.828125 -5.070312 16.628906 -4.59375 16.328125 -4 C 15.992188 -3.3125 15.585938 -2.765625 15.109375 -2.359375 C 14.628906 -1.953125 14.082031 -1.566406 13.46875 -1.203125 C 13.144531 -1.015625 12.816406 -0.851562 12.484375 -0.71875 C 12.160156 -0.582031 11.800781 -0.488281 11.40625 -0.4375 C 11.207031 -0.394531 11.019531 -0.367188 10.84375 -0.359375 C 10.675781 -0.347656 10.488281 -0.316406 10.28125 -0.265625 C 9.894531 -0.160156 9.519531 -0.09375 9.15625 -0.0625 C 8.8125 -0.0390625 8.554688 -0.0234375 8.390625 -0.015625 C 8.222656 -0.00390625 8.070312 -0.00390625 7.9375 -0.015625 C 7.8125 -0.0234375 7.671875 -0.0390625 7.515625 -0.0625 C 7.359375 -0.09375 7.117188 -0.117188 6.796875 -0.140625 C 6.566406 -0.160156 6.347656 -0.160156 6.140625 -0.140625 C 5.941406 -0.117188 5.726562 -0.117188 5.5 -0.140625 C 5.207031 -0.160156 4.820312 -0.191406 4.34375 -0.234375 C 3.863281 -0.285156 3.460938 -0.332031 3.140625 -0.375 C 2.960938 -0.375 2.769531 -0.375 2.5625 -0.375 C 2.351562 -0.375 2.191406 -0.441406 2.078125 -0.578125 C 2.015625 -0.671875 1.957031 -0.820312 1.90625 -1.03125 C 1.863281 -1.25 1.835938 -1.484375 1.828125 -1.734375 C 1.816406 -1.992188 1.804688 -2.234375 1.796875 -2.453125 C 1.785156 -2.679688 1.769531 -2.863281 1.75 -3 C 1.695312 -3.457031 1.691406 -3.867188 1.734375 -4.234375 C 1.785156 -4.597656 1.8125 -5 1.8125 -5.4375 C 1.8125 -5.78125 1.84375 -6.164062 1.90625 -6.59375 C 1.976562 -7.03125 2.035156 -7.40625 2.078125 -7.71875 C 2.171875 -8.289062 2.1875 -8.914062 2.125 -9.59375 C 2.070312 -10.28125 2.054688 -10.898438 2.078125 -11.453125 C 2.078125 -11.609375 2.09375 -11.800781 2.125 -12.03125 C 2.164062 -12.257812 2.195312 -12.484375 2.21875 -12.703125 C 2.238281 -12.929688 2.257812 -13.144531 2.28125 -13.34375 C 2.3125 -13.539062 2.328125 -13.679688 2.328125 -13.765625 C 2.328125 -13.972656 2.304688 -14.171875 2.265625 -14.359375 C 2.234375 -14.554688 2.207031 -14.757812 2.1875 -14.96875 C 2.164062 -15.175781 2.171875 -15.378906 2.203125 -15.578125 C 2.234375 -15.785156 2.25 -15.992188 2.25 -16.203125 C 2.28125 -16.429688 2.28125 -16.640625 2.25 -16.828125 C 2.226562 -17.023438 2.207031 -17.222656 2.1875 -17.421875 C 2.164062 -17.816406 2.171875 -18.195312 2.203125 -18.5625 C 2.234375 -18.925781 2.226562 -19.273438 2.1875 -19.609375 C 2.144531 -19.859375 2.113281 -20.050781 2.09375 -20.1875 C 2.082031 -20.332031 2.101562 -20.53125 2.15625 -20.78125 C 2.21875 -21.257812 2.238281 -21.679688 2.21875 -22.046875 C 2.21875 -22.296875 2.226562 -22.507812 2.25 -22.6875 C 2.28125 -22.875 2.296875 -23.082031 2.296875 -23.3125 C 2.316406 -23.488281 2.328125 -23.660156 2.328125 -23.828125 C 2.328125 -24.003906 2.425781 -24.125 2.625 -24.1875 C 2.695312 -24.21875 2.84375 -24.238281 3.0625 -24.25 C 3.28125 -24.257812 3.515625 -24.269531 3.765625 -24.28125 C 4.015625 -24.289062 4.25 -24.300781 4.46875 -24.3125 C 4.695312 -24.320312 4.867188 -24.328125 4.984375 -24.328125 C 5.210938 -24.328125 5.429688 -24.320312 5.640625 -24.3125 C 5.847656 -24.300781 6.050781 -24.296875 6.25 -24.296875 C 6.4375 -24.316406 6.625 -24.34375 6.8125 -24.375 C 7.007812 -24.414062 7.210938 -24.445312 7.421875 -24.46875 C 7.828125 -24.507812 8.144531 -24.515625 8.375 -24.484375 C 8.601562 -24.453125 8.882812 -24.445312 9.21875 -24.46875 C 9.3125 -24.46875 9.414062 -24.476562 9.53125 -24.5 C 9.644531 -24.519531 9.738281 -24.53125 9.8125 -24.53125 Z M 9.8125 -24.53125 "/></g></g></g><g fill="#ffffff" fill-opacity="1"><g transform="translate(18.268864, 25.981699)"><g><path d="M 6.359375 -19.71875 C 6.359375 -19.675781 6.378906 -19.585938 6.421875 -19.453125 C 6.472656 -19.328125 6.472656 -19.1875 6.421875 -19.03125 C 6.398438 -18.914062 6.382812 -18.859375 6.375 -18.859375 C 6.363281 -18.859375 6.378906 -18.800781 6.421875 -18.6875 C 6.472656 -18.570312 6.488281 -18.515625 6.46875 -18.515625 C 6.457031 -18.515625 6.453125 -18.457031 6.453125 -18.34375 C 6.453125 -18.257812 6.460938 -18.195312 6.484375 -18.15625 C 6.515625 -18.125 6.53125 -18.0625 6.53125 -17.96875 L 6.53125 -16.78125 C 6.507812 -16.570312 6.503906 -16.335938 6.515625 -16.078125 C 6.523438 -15.816406 6.550781 -15.570312 6.59375 -15.34375 C 6.613281 -15.269531 6.625 -15.195312 6.625 -15.125 C 6.625 -15.0625 6.632812 -15 6.65625 -14.9375 C 6.6875 -14.84375 6.707031 -14.796875 6.71875 -14.796875 C 6.726562 -14.796875 6.78125 -14.773438 6.875 -14.734375 C 6.9375 -14.679688 6.976562 -14.648438 7 -14.640625 C 7.03125 -14.628906 7.085938 -14.625 7.171875 -14.625 L 7.6875 -14.5625 C 7.875 -14.582031 7.972656 -14.597656 7.984375 -14.609375 C 7.992188 -14.617188 8.054688 -14.613281 8.171875 -14.59375 C 8.253906 -14.59375 8.316406 -14.601562 8.359375 -14.625 C 8.410156 -14.644531 8.460938 -14.644531 8.515625 -14.625 C 8.578125 -14.625 8.609375 -14.617188 8.609375 -14.609375 C 8.609375 -14.597656 8.628906 -14.59375 8.671875 -14.59375 L 9.5625 -14.59375 C 9.84375 -14.59375 10.1875 -14.597656 10.59375 -14.609375 C 11 -14.617188 11.363281 -14.613281 11.6875 -14.59375 C 11.78125 -14.59375 11.867188 -14.601562 11.953125 -14.625 C 12.046875 -14.644531 12.117188 -14.566406 12.171875 -14.390625 C 12.171875 -14.335938 12.191406 -14.222656 12.234375 -14.046875 C 12.234375 -13.972656 12.226562 -13.925781 12.21875 -13.90625 C 12.207031 -13.882812 12.203125 -13.851562 12.203125 -13.8125 C 12.203125 -13.78125 12.203125 -13.734375 12.203125 -13.671875 C 12.203125 -13.617188 12.222656 -13.523438 12.265625 -13.390625 L 12.265625 -11.953125 C 12.285156 -11.773438 12.257812 -11.617188 12.1875 -11.484375 C 12.125 -11.347656 11.976562 -11.269531 11.75 -11.25 C 11.632812 -11.21875 11.570312 -11.203125 11.5625 -11.203125 C 11.550781 -11.203125 11.5 -11.21875 11.40625 -11.25 C 11.300781 -11.269531 11.238281 -11.265625 11.21875 -11.234375 C 11.207031 -11.210938 11.171875 -11.191406 11.109375 -11.171875 L 10.3125 -11.140625 C 10.113281 -11.117188 9.894531 -11.09375 9.65625 -11.0625 C 9.414062 -11.039062 9.203125 -11.046875 9.015625 -11.078125 C 8.972656 -11.078125 8.90625 -11.082031 8.8125 -11.09375 C 8.71875 -11.101562 8.648438 -11.109375 8.609375 -11.109375 C 8.566406 -11.109375 8.515625 -11.085938 8.453125 -11.046875 C 8.398438 -11.015625 8.347656 -11 8.296875 -11 C 8.191406 -11 8.140625 -11.015625 8.140625 -11.046875 C 8.140625 -11.085938 8.082031 -11.082031 7.96875 -11.03125 C 7.894531 -11.007812 7.832031 -11.003906 7.78125 -11.015625 C 7.738281 -11.023438 7.6875 -11.03125 7.625 -11.03125 C 7.507812 -11.0625 7.4375 -11.078125 7.40625 -11.078125 C 7.382812 -11.078125 7.332031 -11.050781 7.25 -11 C 7.15625 -10.976562 7.078125 -10.972656 7.015625 -10.984375 C 6.960938 -10.992188 6.910156 -10.988281 6.859375 -10.96875 C 6.816406 -10.945312 6.769531 -10.90625 6.71875 -10.84375 C 6.675781 -10.789062 6.613281 -10.6875 6.53125 -10.53125 C 6.476562 -10.414062 6.460938 -10.359375 6.484375 -10.359375 C 6.515625 -10.359375 6.519531 -10.300781 6.5 -10.1875 C 6.46875 -10.09375 6.445312 -9.984375 6.4375 -9.859375 C 6.425781 -9.734375 6.429688 -9.625 6.453125 -9.53125 C 6.484375 -9.414062 6.488281 -9.359375 6.46875 -9.359375 C 6.457031 -9.359375 6.441406 -9.3125 6.421875 -9.21875 C 6.398438 -8.96875 6.398438 -8.71875 6.421875 -8.46875 C 6.441406 -8.21875 6.441406 -7.96875 6.421875 -7.71875 C 6.421875 -7.601562 6.425781 -7.488281 6.4375 -7.375 C 6.445312 -7.257812 6.441406 -7.148438 6.421875 -7.046875 C 6.421875 -6.816406 6.429688 -6.539062 6.453125 -6.21875 C 6.484375 -5.894531 6.5 -5.644531 6.5 -5.46875 C 6.5 -5.351562 6.484375 -5.222656 6.453125 -5.078125 C 6.429688 -4.929688 6.445312 -4.8125 6.5 -4.71875 C 6.632812 -4.53125 6.851562 -4.453125 7.15625 -4.484375 C 7.46875 -4.523438 7.710938 -4.535156 7.890625 -4.515625 C 8.054688 -4.515625 8.269531 -4.515625 8.53125 -4.515625 C 8.789062 -4.515625 9.066406 -4.515625 9.359375 -4.515625 C 9.660156 -4.515625 9.941406 -4.519531 10.203125 -4.53125 C 10.460938 -4.539062 10.671875 -4.546875 10.828125 -4.546875 C 11.109375 -4.585938 11.351562 -4.578125 11.5625 -4.515625 C 11.78125 -4.460938 12.015625 -4.4375 12.265625 -4.4375 C 12.535156 -4.4375 12.734375 -4.414062 12.859375 -4.375 C 12.984375 -4.332031 13.070312 -4.238281 13.125 -4.09375 C 13.1875 -3.957031 13.21875 -3.753906 13.21875 -3.484375 C 13.21875 -3.210938 13.234375 -2.835938 13.265625 -2.359375 C 13.285156 -1.878906 13.296875 -1.492188 13.296875 -1.203125 C 13.296875 -0.921875 13.253906 -0.703125 13.171875 -0.546875 C 13.085938 -0.390625 12.960938 -0.285156 12.796875 -0.234375 C 12.628906 -0.191406 12.394531 -0.171875 12.09375 -0.171875 C 11.820312 -0.148438 11.566406 -0.144531 11.328125 -0.15625 C 11.085938 -0.164062 10.84375 -0.171875 10.59375 -0.171875 C 9.726562 -0.210938 8.945312 -0.179688 8.25 -0.078125 C 7.550781 0.015625 6.796875 0.03125 5.984375 -0.03125 C 5.660156 -0.0507812 5.40625 -0.0703125 5.21875 -0.09375 C 5.039062 -0.125 4.78125 -0.113281 4.4375 -0.0625 C 4.125 -0.0195312 3.867188 -0.0195312 3.671875 -0.0625 C 3.484375 -0.113281 3.226562 -0.140625 2.90625 -0.140625 C 2.632812 -0.160156 2.414062 -0.195312 2.25 -0.25 C 2.09375 -0.3125 1.992188 -0.5 1.953125 -0.8125 C 1.921875 -1.070312 1.894531 -1.328125 1.875 -1.578125 C 1.851562 -1.828125 1.851562 -2.078125 1.875 -2.328125 C 1.875 -2.578125 1.867188 -2.816406 1.859375 -3.046875 C 1.847656 -3.273438 1.832031 -3.515625 1.8125 -3.765625 C 1.8125 -4.015625 1.816406 -4.269531 1.828125 -4.53125 C 1.835938 -4.789062 1.84375 -5.046875 1.84375 -5.296875 C 1.84375 -5.816406 1.832031 -6.34375 1.8125 -6.875 C 1.789062 -7.414062 1.800781 -7.945312 1.84375 -8.46875 C 1.882812 -8.882812 1.910156 -9.203125 1.921875 -9.421875 C 1.941406 -9.648438 1.953125 -9.851562 1.953125 -10.03125 C 1.953125 -10.21875 1.9375 -10.414062 1.90625 -10.625 C 1.882812 -10.832031 1.875 -11.117188 1.875 -11.484375 L 1.875 -12.265625 C 1.875 -12.421875 1.867188 -12.566406 1.859375 -12.703125 C 1.847656 -12.847656 1.84375 -12.988281 1.84375 -13.125 C 1.820312 -13.375 1.835938 -13.601562 1.890625 -13.8125 C 1.953125 -14.03125 1.972656 -14.265625 1.953125 -14.515625 C 1.921875 -14.773438 1.878906 -15.007812 1.828125 -15.21875 C 1.773438 -15.4375 1.734375 -15.671875 1.703125 -15.921875 L 1.84375 -18.828125 C 1.882812 -19.035156 1.925781 -19.25 1.96875 -19.46875 C 2.019531 -19.695312 2.046875 -19.914062 2.046875 -20.125 C 2.066406 -20.3125 2.039062 -20.515625 1.96875 -20.734375 C 1.90625 -20.960938 1.875 -21.203125 1.875 -21.453125 C 1.851562 -21.679688 1.835938 -21.925781 1.828125 -22.1875 C 1.816406 -22.457031 1.820312 -22.703125 1.84375 -22.921875 C 1.863281 -23.316406 1.894531 -23.597656 1.9375 -23.765625 C 1.988281 -23.929688 2.070312 -24.050781 2.1875 -24.125 C 2.300781 -24.195312 2.484375 -24.234375 2.734375 -24.234375 C 2.984375 -24.234375 3.328125 -24.242188 3.765625 -24.265625 C 4.015625 -24.285156 4.273438 -24.296875 4.546875 -24.296875 C 4.816406 -24.296875 5.078125 -24.316406 5.328125 -24.359375 C 5.578125 -24.390625 5.828125 -24.414062 6.078125 -24.4375 C 6.328125 -24.457031 6.578125 -24.457031 6.828125 -24.4375 C 7.335938 -24.382812 7.828125 -24.351562 8.296875 -24.34375 C 8.773438 -24.332031 9.28125 -24.304688 9.8125 -24.265625 C 10.257812 -24.210938 10.601562 -24.179688 10.84375 -24.171875 C 11.082031 -24.160156 11.429688 -24.179688 11.890625 -24.234375 C 12.003906 -24.234375 12.125 -24.242188 12.25 -24.265625 C 12.375 -24.285156 12.492188 -24.304688 12.609375 -24.328125 C 12.953125 -24.347656 13.132812 -24.242188 13.15625 -24.015625 C 13.175781 -23.796875 13.210938 -23.5625 13.265625 -23.3125 C 13.304688 -23.007812 13.328125 -22.765625 13.328125 -22.578125 C 13.328125 -22.398438 13.304688 -22.175781 13.265625 -21.90625 C 13.210938 -21.488281 13.191406 -21.15625 13.203125 -20.90625 C 13.210938 -20.65625 13.1875 -20.460938 13.125 -20.328125 C 13.070312 -20.191406 12.972656 -20.097656 12.828125 -20.046875 C 12.679688 -20.003906 12.414062 -19.984375 12.03125 -19.984375 C 11.78125 -20.015625 11.539062 -20.003906 11.3125 -19.953125 C 11.082031 -19.910156 10.84375 -19.898438 10.59375 -19.921875 C 10.457031 -19.921875 10.25 -19.925781 9.96875 -19.9375 C 9.695312 -19.945312 9.40625 -19.953125 9.09375 -19.953125 C 8.789062 -19.953125 8.503906 -19.953125 8.234375 -19.953125 C 7.960938 -19.953125 7.769531 -19.953125 7.65625 -19.953125 C 7.40625 -19.929688 7.179688 -19.925781 6.984375 -19.9375 C 6.796875 -19.945312 6.585938 -19.875 6.359375 -19.71875 Z M 6.359375 -19.71875 "/></g></g></g><g fill="#ffffff" fill-opacity="1"><g transform="translate(32.280829, 25.981699)"><g><path d="M 7.078125 -18.421875 C 7.117188 -18.117188 7.140625 -17.9375 7.140625 -17.875 C 7.140625 -17.820312 7.128906 -17.660156 7.109375 -17.390625 C 7.109375 -17.328125 7.113281 -17.273438 7.125 -17.234375 C 7.132812 -17.203125 7.140625 -17.140625 7.140625 -17.046875 L 7.109375 -15.484375 L 7.109375 -14.796875 C 7.109375 -14.679688 7.117188 -14.5625 7.140625 -14.4375 C 7.160156 -14.3125 7.171875 -14.191406 7.171875 -14.078125 C 7.171875 -13.960938 7.164062 -13.878906 7.15625 -13.828125 C 7.144531 -13.785156 7.140625 -13.753906 7.140625 -13.734375 C 7.140625 -13.710938 7.148438 -13.675781 7.171875 -13.625 C 7.191406 -13.582031 7.226562 -13.503906 7.28125 -13.390625 C 7.34375 -13.210938 7.378906 -13.128906 7.390625 -13.140625 C 7.410156 -13.148438 7.507812 -13.132812 7.6875 -13.09375 C 7.84375 -13.0625 8.050781 -13.039062 8.3125 -13.03125 C 8.582031 -13.019531 8.851562 -13.023438 9.125 -13.046875 C 9.394531 -13.078125 9.648438 -13.113281 9.890625 -13.15625 C 10.128906 -13.195312 10.304688 -13.253906 10.421875 -13.328125 C 10.535156 -13.390625 10.628906 -13.425781 10.703125 -13.4375 C 10.785156 -13.457031 10.882812 -13.507812 11 -13.59375 C 11.1875 -13.707031 11.4375 -13.878906 11.75 -14.109375 C 12.070312 -14.335938 12.289062 -14.53125 12.40625 -14.6875 C 12.65625 -15.050781 12.863281 -15.453125 13.03125 -15.890625 C 13.207031 -16.328125 13.25 -16.757812 13.15625 -17.1875 C 13.132812 -17.34375 13.078125 -17.5625 12.984375 -17.84375 C 12.890625 -18.132812 12.785156 -18.328125 12.671875 -18.421875 C 12.609375 -18.484375 12.539062 -18.554688 12.46875 -18.640625 C 12.40625 -18.722656 12.335938 -18.796875 12.265625 -18.859375 C 11.992188 -19.109375 11.769531 -19.25 11.59375 -19.28125 C 11.425781 -19.320312 11.265625 -19.363281 11.109375 -19.40625 C 10.992188 -19.457031 10.890625 -19.5 10.796875 -19.53125 C 10.703125 -19.5625 10.585938 -19.585938 10.453125 -19.609375 C 10.296875 -19.640625 10.085938 -19.660156 9.828125 -19.671875 C 9.566406 -19.679688 9.296875 -19.6875 9.015625 -19.6875 C 8.742188 -19.6875 8.476562 -19.679688 8.21875 -19.671875 C 7.957031 -19.660156 7.734375 -19.640625 7.546875 -19.609375 C 7.367188 -19.566406 7.257812 -19.523438 7.21875 -19.484375 C 7.1875 -19.453125 7.171875 -19.347656 7.171875 -19.171875 C 7.148438 -19.054688 7.125 -18.929688 7.09375 -18.796875 C 7.0625 -18.660156 7.054688 -18.535156 7.078125 -18.421875 Z M 4.515625 -24.46875 C 4.960938 -24.488281 5.46875 -24.488281 6.03125 -24.46875 C 6.59375 -24.445312 7.097656 -24.425781 7.546875 -24.40625 C 8.046875 -24.40625 8.539062 -24.421875 9.03125 -24.453125 C 9.519531 -24.484375 10.03125 -24.476562 10.5625 -24.4375 C 11.519531 -24.382812 12.4375 -24.222656 13.3125 -23.953125 C 14.1875 -23.679688 15 -23.226562 15.75 -22.59375 C 15.820312 -22.519531 15.925781 -22.382812 16.0625 -22.1875 C 16.195312 -22 16.332031 -21.785156 16.46875 -21.546875 C 16.601562 -21.304688 16.726562 -21.078125 16.84375 -20.859375 C 16.957031 -20.640625 17.035156 -20.472656 17.078125 -20.359375 C 17.222656 -19.992188 17.347656 -19.5625 17.453125 -19.0625 C 17.566406 -18.5625 17.644531 -18.050781 17.6875 -17.53125 C 17.738281 -17.007812 17.75 -16.492188 17.71875 -15.984375 C 17.6875 -15.484375 17.601562 -15.050781 17.46875 -14.6875 C 17.125 -13.820312 16.742188 -13.003906 16.328125 -12.234375 C 16.191406 -11.984375 16.066406 -11.769531 15.953125 -11.59375 C 15.835938 -11.425781 15.722656 -11.28125 15.609375 -11.15625 C 15.503906 -11.03125 15.367188 -10.90625 15.203125 -10.78125 C 15.046875 -10.65625 14.851562 -10.5 14.625 -10.3125 C 14.445312 -10.175781 14.238281 -10.070312 14 -10 C 13.757812 -9.9375 13.566406 -9.835938 13.421875 -9.703125 C 13.265625 -9.523438 13.289062 -9.351562 13.5 -9.1875 C 13.707031 -9.03125 13.878906 -8.914062 14.015625 -8.84375 C 14.460938 -8.664062 14.832031 -8.460938 15.125 -8.234375 C 15.425781 -8.003906 15.738281 -7.707031 16.0625 -7.34375 C 16.40625 -6.9375 16.617188 -6.515625 16.703125 -6.078125 C 16.796875 -5.648438 16.867188 -5.171875 16.921875 -4.640625 C 16.960938 -4.191406 17.015625 -3.691406 17.078125 -3.140625 C 17.148438 -2.597656 17.175781 -2.097656 17.15625 -1.640625 C 17.132812 -1.117188 17.078125 -0.742188 16.984375 -0.515625 C 16.890625 -0.285156 16.765625 -0.132812 16.609375 -0.0625 C 16.453125 0 16.273438 0.015625 16.078125 -0.015625 C 15.878906 -0.046875 15.679688 -0.0625 15.484375 -0.0625 C 14.953125 -0.09375 14.460938 -0.0859375 14.015625 -0.046875 C 13.578125 -0.015625 13.039062 -0.0351562 12.40625 -0.109375 C 12.039062 -0.148438 11.769531 -0.222656 11.59375 -0.328125 C 11.425781 -0.429688 11.316406 -0.566406 11.265625 -0.734375 C 11.222656 -0.898438 11.207031 -1.097656 11.21875 -1.328125 C 11.238281 -1.554688 11.25 -1.820312 11.25 -2.125 C 11.25 -2.550781 11.238281 -2.878906 11.21875 -3.109375 C 11.207031 -3.335938 11.195312 -3.539062 11.1875 -3.71875 C 11.175781 -3.90625 11.15625 -4.097656 11.125 -4.296875 C 11.09375 -4.503906 11.050781 -4.800781 11 -5.1875 C 10.976562 -5.507812 10.941406 -5.769531 10.890625 -5.96875 C 10.847656 -6.175781 10.789062 -6.363281 10.71875 -6.53125 C 10.65625 -6.707031 10.5625 -6.878906 10.4375 -7.046875 C 10.3125 -7.222656 10.144531 -7.425781 9.9375 -7.65625 C 9.757812 -7.832031 9.59375 -7.976562 9.4375 -8.09375 C 9.289062 -8.207031 9.109375 -8.300781 8.890625 -8.375 C 8.660156 -8.414062 8.429688 -8.4375 8.203125 -8.4375 C 7.972656 -8.4375 7.769531 -8.347656 7.59375 -8.171875 C 7.445312 -8.035156 7.34375 -7.847656 7.28125 -7.609375 C 7.226562 -7.367188 7.195312 -7.109375 7.1875 -6.828125 C 7.175781 -6.554688 7.171875 -6.285156 7.171875 -6.015625 C 7.171875 -5.742188 7.160156 -5.515625 7.140625 -5.328125 C 7.097656 -5.078125 7.078125 -4.804688 7.078125 -4.515625 C 7.078125 -4.234375 7.078125 -3.96875 7.078125 -3.71875 C 7.078125 -3.46875 7.0625 -3.21875 7.03125 -2.96875 C 7.007812 -2.71875 7 -2.46875 7 -2.21875 C 7 -1.757812 7.015625 -1.390625 7.046875 -1.109375 C 7.085938 -0.828125 7.046875 -0.601562 6.921875 -0.4375 C 6.796875 -0.28125 6.546875 -0.171875 6.171875 -0.109375 C 5.796875 -0.0546875 5.195312 -0.0390625 4.375 -0.0625 C 4.101562 -0.0625 3.847656 -0.078125 3.609375 -0.109375 C 3.367188 -0.148438 3.097656 -0.160156 2.796875 -0.140625 C 2.546875 -0.117188 2.332031 -0.125 2.15625 -0.15625 C 1.988281 -0.1875 1.882812 -0.363281 1.84375 -0.6875 C 1.820312 -0.882812 1.816406 -1.128906 1.828125 -1.421875 C 1.835938 -1.722656 1.832031 -2 1.8125 -2.25 C 1.8125 -2.78125 1.828125 -3.3125 1.859375 -3.84375 C 1.890625 -4.375 1.90625 -4.90625 1.90625 -5.4375 C 1.9375 -5.957031 1.9375 -6.484375 1.90625 -7.015625 C 1.882812 -7.554688 1.875 -8.085938 1.875 -8.609375 C 1.925781 -9.609375 1.953125 -10.617188 1.953125 -11.640625 C 1.953125 -12.671875 1.914062 -13.6875 1.84375 -14.6875 C 1.800781 -15.21875 1.800781 -15.726562 1.84375 -16.21875 C 1.882812 -16.707031 1.894531 -17.210938 1.875 -17.734375 C 1.851562 -18.003906 1.832031 -18.273438 1.8125 -18.546875 C 1.789062 -18.828125 1.769531 -19.101562 1.75 -19.375 C 1.71875 -19.625 1.707031 -19.859375 1.71875 -20.078125 C 1.738281 -20.296875 1.75 -20.53125 1.75 -20.78125 C 1.75 -21.03125 1.738281 -21.28125 1.71875 -21.53125 C 1.707031 -21.78125 1.71875 -22.039062 1.75 -22.3125 C 1.75 -22.519531 1.734375 -22.769531 1.703125 -23.0625 C 1.679688 -23.363281 1.707031 -23.601562 1.78125 -23.78125 C 1.84375 -23.988281 1.984375 -24.144531 2.203125 -24.25 C 2.421875 -24.351562 2.671875 -24.421875 2.953125 -24.453125 C 3.242188 -24.484375 3.53125 -24.492188 3.8125 -24.484375 C 4.09375 -24.472656 4.328125 -24.46875 4.515625 -24.46875 Z M 4.515625 -24.46875 "/></g></g></g><g fill="#ffffff" fill-opacity="1"><g transform="translate(51.077377, 25.981699)"><g><path d="M 4.953125 -24.5 C 5.140625 -24.5 5.316406 -24.492188 5.484375 -24.484375 C 5.648438 -24.472656 5.828125 -24.457031 6.015625 -24.4375 C 6.171875 -24.4375 6.351562 -24.4375 6.5625 -24.4375 C 6.769531 -24.4375 6.929688 -24.351562 7.046875 -24.1875 C 7.109375 -24.101562 7.144531 -23.960938 7.15625 -23.765625 C 7.164062 -23.566406 7.164062 -23.363281 7.15625 -23.15625 C 7.144531 -22.957031 7.128906 -22.753906 7.109375 -22.546875 C 7.085938 -22.347656 7.078125 -22.179688 7.078125 -22.046875 C 7.054688 -21.679688 7.035156 -21.285156 7.015625 -20.859375 C 7.003906 -20.441406 7.015625 -20.0625 7.046875 -19.71875 C 7.066406 -19.53125 7.085938 -19.335938 7.109375 -19.140625 C 7.128906 -18.953125 7.140625 -18.769531 7.140625 -18.59375 C 7.140625 -18.425781 7.132812 -18.21875 7.125 -17.96875 C 7.113281 -17.71875 7.101562 -17.441406 7.09375 -17.140625 C 7.082031 -16.847656 7.070312 -16.5625 7.0625 -16.28125 C 7.050781 -16 7.046875 -15.742188 7.046875 -15.515625 C 7.066406 -15.171875 7.085938 -14.820312 7.109375 -14.46875 C 7.128906 -14.113281 7.140625 -13.78125 7.140625 -13.46875 C 7.140625 -13.28125 7.132812 -13.097656 7.125 -12.921875 C 7.113281 -12.753906 7.109375 -12.582031 7.109375 -12.40625 C 7.109375 -12.21875 7.113281 -12.039062 7.125 -11.875 C 7.132812 -11.707031 7.140625 -11.53125 7.140625 -11.34375 C 7.160156 -10.957031 7.164062 -10.582031 7.15625 -10.21875 C 7.144531 -9.851562 7.128906 -9.476562 7.109375 -9.09375 C 7.085938 -8.707031 7.09375 -8.347656 7.125 -8.015625 C 7.15625 -7.679688 7.171875 -7.332031 7.171875 -6.96875 L 7.171875 -5.875 C 7.191406 -5.664062 7.242188 -5.519531 7.328125 -5.4375 C 7.410156 -5.363281 7.539062 -5.304688 7.71875 -5.265625 C 8.082031 -5.171875 8.4375 -5.125 8.78125 -5.125 C 9.125 -5.125 9.476562 -5.144531 9.84375 -5.1875 C 9.9375 -5.1875 10.078125 -5.1875 10.265625 -5.1875 C 10.460938 -5.1875 10.660156 -5.179688 10.859375 -5.171875 C 11.066406 -5.160156 11.257812 -5.148438 11.4375 -5.140625 C 11.625 -5.128906 11.753906 -5.101562 11.828125 -5.0625 C 11.984375 -4.96875 12.070312 -4.835938 12.09375 -4.671875 C 12.113281 -4.515625 12.101562 -4.359375 12.0625 -4.203125 C 11.988281 -3.703125 11.992188 -3.328125 12.078125 -3.078125 C 12.160156 -2.828125 12.203125 -2.539062 12.203125 -2.21875 C 12.203125 -1.601562 12.195312 -1.148438 12.1875 -0.859375 C 12.175781 -0.578125 12.097656 -0.382812 11.953125 -0.28125 C 11.816406 -0.1875 11.59375 -0.144531 11.28125 -0.15625 C 10.976562 -0.164062 10.53125 -0.160156 9.9375 -0.140625 C 9.78125 -0.117188 9.628906 -0.0976562 9.484375 -0.078125 C 9.335938 -0.0664062 9.171875 -0.0507812 8.984375 -0.03125 C 8.671875 0.0078125 8.320312 0.00390625 7.9375 -0.046875 C 7.5625 -0.109375 7.207031 -0.128906 6.875 -0.109375 C 6.6875 -0.109375 6.503906 -0.0859375 6.328125 -0.046875 C 6.160156 -0.015625 5.988281 0 5.8125 0 C 5.625 -0.0195312 5.441406 -0.0351562 5.265625 -0.046875 C 5.097656 -0.0546875 4.914062 -0.0507812 4.71875 -0.03125 C 4.488281 -0.03125 4.304688 -0.0351562 4.171875 -0.046875 C 4.035156 -0.0546875 3.851562 -0.0625 3.625 -0.0625 C 3.414062 -0.0625 3.207031 -0.0507812 3 -0.03125 C 2.800781 -0.0078125 2.617188 0 2.453125 0 C 2.296875 0 2.160156 -0.03125 2.046875 -0.09375 C 1.929688 -0.164062 1.851562 -0.304688 1.8125 -0.515625 C 1.769531 -0.710938 1.738281 -0.941406 1.71875 -1.203125 C 1.707031 -1.472656 1.703125 -1.753906 1.703125 -2.046875 C 1.703125 -2.347656 1.707031 -2.632812 1.71875 -2.90625 C 1.738281 -3.175781 1.75 -3.425781 1.75 -3.65625 C 1.75 -3.84375 1.757812 -4.023438 1.78125 -4.203125 C 1.800781 -4.378906 1.8125 -4.5625 1.8125 -4.75 C 1.789062 -4.925781 1.765625 -5.097656 1.734375 -5.265625 C 1.710938 -5.441406 1.703125 -5.625 1.703125 -5.8125 C 1.734375 -6.195312 1.765625 -6.546875 1.796875 -6.859375 C 1.828125 -7.179688 1.820312 -7.535156 1.78125 -7.921875 C 1.757812 -8.265625 1.738281 -8.515625 1.71875 -8.671875 C 1.707031 -8.835938 1.707031 -8.96875 1.71875 -9.0625 C 1.738281 -9.164062 1.75 -9.285156 1.75 -9.421875 C 1.75 -9.566406 1.75 -9.773438 1.75 -10.046875 C 1.75 -10.222656 1.753906 -10.398438 1.765625 -10.578125 C 1.773438 -10.765625 1.789062 -10.953125 1.8125 -11.140625 C 1.832031 -11.347656 1.835938 -11.535156 1.828125 -11.703125 C 1.816406 -11.867188 1.8125 -12.046875 1.8125 -12.234375 C 1.8125 -12.410156 1.820312 -12.578125 1.84375 -12.734375 C 1.863281 -12.898438 1.875 -13.078125 1.875 -13.265625 C 1.875 -13.441406 1.863281 -13.613281 1.84375 -13.78125 C 1.820312 -13.957031 1.800781 -14.132812 1.78125 -14.3125 C 1.78125 -14.519531 1.785156 -14.707031 1.796875 -14.875 C 1.804688 -15.050781 1.820312 -15.242188 1.84375 -15.453125 C 1.863281 -15.648438 1.867188 -15.832031 1.859375 -16 C 1.847656 -16.175781 1.84375 -16.367188 1.84375 -16.578125 C 1.84375 -16.890625 1.84375 -17.25 1.84375 -17.65625 C 1.84375 -18.070312 1.863281 -18.425781 1.90625 -18.71875 C 1.976562 -19.175781 1.992188 -19.539062 1.953125 -19.8125 C 1.921875 -20.09375 1.894531 -20.445312 1.875 -20.875 C 1.832031 -21.257812 1.832031 -21.625 1.875 -21.96875 C 1.925781 -22.3125 1.9375 -22.675781 1.90625 -23.0625 C 1.863281 -23.59375 1.863281 -23.953125 1.90625 -24.140625 C 1.957031 -24.335938 2.28125 -24.4375 2.875 -24.4375 C 3.21875 -24.4375 3.554688 -24.445312 3.890625 -24.46875 C 4.234375 -24.488281 4.585938 -24.5 4.953125 -24.5 Z M 4.953125 -24.5 "/></g></g></g><g fill="#ffffff" fill-opacity="1"><g transform="translate(63.99573, 25.981699)"><g><path d="M 6.046875 -24.234375 C 6.367188 -24.253906 6.578125 -24.207031 6.671875 -24.09375 C 6.773438 -23.976562 6.832031 -23.800781 6.84375 -23.5625 C 6.863281 -23.320312 6.859375 -23.019531 6.828125 -22.65625 C 6.804688 -22.289062 6.820312 -21.859375 6.875 -21.359375 C 6.914062 -21.035156 6.9375 -20.71875 6.9375 -20.40625 C 6.9375 -20.101562 6.945312 -19.796875 6.96875 -19.484375 C 6.96875 -19.316406 6.972656 -19.0625 6.984375 -18.71875 C 6.992188 -18.382812 7 -18.023438 7 -17.640625 C 7 -17.265625 6.992188 -16.90625 6.984375 -16.5625 C 6.972656 -16.226562 6.96875 -15.984375 6.96875 -15.828125 C 6.925781 -15.210938 6.929688 -14.59375 6.984375 -13.96875 C 7.046875 -13.351562 7.097656 -12.738281 7.140625 -12.125 C 7.179688 -11.875 7.203125 -11.582031 7.203125 -11.25 C 7.203125 -10.925781 7.191406 -10.628906 7.171875 -10.359375 C 7.171875 -10.015625 7.175781 -9.789062 7.1875 -9.6875 C 7.195312 -9.582031 7.203125 -9.5 7.203125 -9.4375 C 7.203125 -9.382812 7.191406 -9.304688 7.171875 -9.203125 C 7.148438 -9.109375 7.117188 -8.890625 7.078125 -8.546875 C 7.023438 -8.222656 6.992188 -7.894531 6.984375 -7.5625 C 6.972656 -7.238281 6.976562 -6.914062 7 -6.59375 C 7.03125 -6.25 7.050781 -6.023438 7.0625 -5.921875 C 7.070312 -5.828125 7.078125 -5.742188 7.078125 -5.671875 C 7.078125 -5.597656 7.0625 -5.507812 7.03125 -5.40625 C 7.007812 -5.3125 6.976562 -5.09375 6.9375 -4.75 C 6.894531 -4.425781 6.882812 -4.140625 6.90625 -3.890625 C 6.925781 -3.640625 6.957031 -3.359375 7 -3.046875 C 7.050781 -2.722656 7.0625 -2.429688 7.03125 -2.171875 C 7.007812 -1.910156 7.054688 -1.617188 7.171875 -1.296875 C 7.242188 -1.046875 7.21875 -0.789062 7.09375 -0.53125 C 6.96875 -0.269531 6.78125 -0.113281 6.53125 -0.0625 C 6.363281 -0.0195312 6.210938 -0.0195312 6.078125 -0.0625 C 5.941406 -0.113281 5.804688 -0.140625 5.671875 -0.140625 C 5.515625 -0.140625 5.375 -0.125 5.25 -0.09375 C 5.125 -0.0703125 4.976562 -0.0625 4.8125 -0.0625 C 4.5 -0.09375 4.234375 -0.113281 4.015625 -0.125 C 3.796875 -0.132812 3.53125 -0.113281 3.21875 -0.0625 C 2.820312 -0.0195312 2.515625 -0.015625 2.296875 -0.046875 C 2.085938 -0.0859375 1.992188 -0.332031 2.015625 -0.78125 C 2.015625 -1.125 2.007812 -1.4375 2 -1.71875 C 1.988281 -2.007812 1.972656 -2.3125 1.953125 -2.625 C 1.921875 -3.269531 1.90625 -3.898438 1.90625 -4.515625 C 1.90625 -5.128906 1.882812 -5.753906 1.84375 -6.390625 C 1.820312 -6.566406 1.8125 -6.722656 1.8125 -6.859375 C 1.8125 -7.003906 1.8125 -7.15625 1.8125 -7.3125 C 1.8125 -7.5 1.804688 -7.664062 1.796875 -7.8125 C 1.785156 -7.957031 1.78125 -8.109375 1.78125 -8.265625 C 1.757812 -8.453125 1.757812 -8.617188 1.78125 -8.765625 C 1.800781 -8.910156 1.800781 -9.078125 1.78125 -9.265625 C 1.757812 -9.398438 1.753906 -9.535156 1.765625 -9.671875 C 1.773438 -9.804688 1.789062 -9.941406 1.8125 -10.078125 C 1.832031 -10.265625 1.828125 -10.421875 1.796875 -10.546875 C 1.765625 -10.671875 1.757812 -10.820312 1.78125 -11 C 1.78125 -11.132812 1.785156 -11.273438 1.796875 -11.421875 C 1.804688 -11.578125 1.8125 -11.734375 1.8125 -11.890625 C 1.8125 -12.023438 1.804688 -12.164062 1.796875 -12.3125 C 1.785156 -12.46875 1.78125 -12.613281 1.78125 -12.75 L 1.75 -14.59375 C 1.75 -14.726562 1.753906 -14.910156 1.765625 -15.140625 C 1.773438 -15.367188 1.785156 -15.617188 1.796875 -15.890625 C 1.804688 -16.160156 1.816406 -16.421875 1.828125 -16.671875 C 1.835938 -16.921875 1.84375 -17.128906 1.84375 -17.296875 C 1.820312 -17.722656 1.820312 -18.023438 1.84375 -18.203125 C 1.863281 -18.390625 1.851562 -18.664062 1.8125 -19.03125 C 1.769531 -19.21875 1.753906 -19.367188 1.765625 -19.484375 C 1.773438 -19.597656 1.800781 -19.742188 1.84375 -19.921875 C 1.863281 -20.109375 1.867188 -20.40625 1.859375 -20.8125 C 1.847656 -21.21875 1.84375 -21.523438 1.84375 -21.734375 C 1.820312 -21.910156 1.800781 -22.066406 1.78125 -22.203125 C 1.757812 -22.347656 1.769531 -22.507812 1.8125 -22.6875 C 1.832031 -22.84375 1.84375 -22.992188 1.84375 -23.140625 C 1.84375 -23.296875 1.859375 -23.429688 1.890625 -23.546875 C 1.929688 -23.660156 2 -23.753906 2.09375 -23.828125 C 2.195312 -23.910156 2.351562 -23.953125 2.5625 -23.953125 C 2.882812 -23.953125 3.1875 -23.972656 3.46875 -24.015625 C 3.75 -24.066406 4.050781 -24.09375 4.375 -24.09375 C 4.695312 -24.09375 4.984375 -24.101562 5.234375 -24.125 C 5.484375 -24.144531 5.753906 -24.179688 6.046875 -24.234375 Z M 6.046875 -24.234375 "/></g></g></g><g fill="#ffffff" fill-opacity="1"><g transform="translate(72.94972, 25.981699)"><g><path d="M 6.9375 -13.421875 C 6.894531 -13.222656 6.859375 -12.925781 6.828125 -12.53125 C 6.804688 -12.144531 6.804688 -11.851562 6.828125 -11.65625 C 6.859375 -11.425781 6.878906 -11.242188 6.890625 -11.109375 C 6.898438 -10.972656 6.910156 -10.84375 6.921875 -10.71875 C 6.929688 -10.59375 6.929688 -10.453125 6.921875 -10.296875 C 6.910156 -10.148438 6.878906 -9.960938 6.828125 -9.734375 C 6.785156 -9.484375 6.773438 -9.132812 6.796875 -8.6875 C 6.816406 -8.25 6.84375 -7.894531 6.875 -7.625 C 6.914062 -7.238281 6.898438 -6.894531 6.828125 -6.59375 C 6.765625 -6.300781 6.734375 -5.972656 6.734375 -5.609375 C 6.734375 -5.421875 6.75 -5.25 6.78125 -5.09375 C 6.8125 -4.9375 6.84375 -4.765625 6.875 -4.578125 C 6.894531 -4.035156 6.9375 -3.519531 7 -3.03125 C 7.070312 -2.539062 7.097656 -2.03125 7.078125 -1.5 C 7.054688 -1.070312 7.015625 -0.75 6.953125 -0.53125 C 6.898438 -0.3125 6.617188 -0.210938 6.109375 -0.234375 C 5.742188 -0.234375 5.390625 -0.226562 5.046875 -0.21875 C 4.710938 -0.207031 4.363281 -0.238281 4 -0.3125 C 3.8125 -0.351562 3.648438 -0.375 3.515625 -0.375 C 3.378906 -0.375 3.222656 -0.375 3.046875 -0.375 C 2.796875 -0.351562 2.582031 -0.34375 2.40625 -0.34375 C 2.238281 -0.34375 2.101562 -0.363281 2 -0.40625 C 1.894531 -0.457031 1.832031 -0.554688 1.8125 -0.703125 C 1.789062 -0.847656 1.789062 -1.054688 1.8125 -1.328125 C 1.851562 -1.765625 1.863281 -2.113281 1.84375 -2.375 C 1.820312 -2.632812 1.800781 -2.972656 1.78125 -3.390625 C 1.757812 -3.566406 1.757812 -3.722656 1.78125 -3.859375 C 1.800781 -3.992188 1.8125 -4.15625 1.8125 -4.34375 C 1.851562 -4.6875 1.867188 -5.03125 1.859375 -5.375 C 1.847656 -5.726562 1.851562 -6.085938 1.875 -6.453125 C 1.894531 -7.484375 1.898438 -8.519531 1.890625 -9.5625 C 1.878906 -10.613281 1.863281 -11.664062 1.84375 -12.71875 C 1.84375 -13.445312 1.816406 -14.144531 1.765625 -14.8125 C 1.722656 -15.488281 1.75 -16.175781 1.84375 -16.875 C 1.882812 -17.238281 1.882812 -17.566406 1.84375 -17.859375 C 1.800781 -18.160156 1.78125 -18.492188 1.78125 -18.859375 C 1.757812 -19.179688 1.757812 -19.523438 1.78125 -19.890625 C 1.800781 -20.253906 1.800781 -20.59375 1.78125 -20.90625 C 1.726562 -21.300781 1.707031 -21.648438 1.71875 -21.953125 C 1.738281 -22.265625 1.734375 -22.613281 1.703125 -23 C 1.703125 -23.09375 1.695312 -23.226562 1.6875 -23.40625 C 1.675781 -23.59375 1.675781 -23.78125 1.6875 -23.96875 C 1.695312 -24.164062 1.722656 -24.34375 1.765625 -24.5 C 1.816406 -24.65625 1.890625 -24.757812 1.984375 -24.8125 C 2.023438 -24.832031 2.128906 -24.847656 2.296875 -24.859375 C 2.472656 -24.867188 2.675781 -24.878906 2.90625 -24.890625 C 3.132812 -24.898438 3.34375 -24.90625 3.53125 -24.90625 C 3.726562 -24.90625 3.863281 -24.90625 3.9375 -24.90625 C 4.226562 -24.90625 4.554688 -24.882812 4.921875 -24.84375 C 5.285156 -24.800781 5.628906 -24.753906 5.953125 -24.703125 C 6.316406 -24.660156 6.570312 -24.539062 6.71875 -24.34375 C 6.863281 -24.15625 7.003906 -23.898438 7.140625 -23.578125 C 8.003906 -21.410156 9.019531 -19.359375 10.1875 -17.421875 C 10.34375 -17.148438 10.472656 -16.890625 10.578125 -16.640625 C 10.679688 -16.390625 10.8125 -16.128906 10.96875 -15.859375 C 11.125 -15.628906 11.25 -15.375 11.34375 -15.09375 C 11.4375 -14.820312 11.5625 -14.5625 11.71875 -14.3125 C 11.769531 -14.25 11.875 -14.054688 12.03125 -13.734375 C 12.1875 -13.421875 12.351562 -13.082031 12.53125 -12.71875 C 12.71875 -12.351562 12.894531 -12.023438 13.0625 -11.734375 C 13.238281 -11.453125 13.335938 -11.320312 13.359375 -11.34375 C 13.378906 -11.363281 13.382812 -11.566406 13.375 -11.953125 C 13.363281 -12.347656 13.351562 -12.789062 13.34375 -13.28125 C 13.332031 -13.769531 13.316406 -14.234375 13.296875 -14.671875 C 13.273438 -15.117188 13.265625 -15.390625 13.265625 -15.484375 C 13.234375 -15.753906 13.21875 -16.070312 13.21875 -16.4375 C 13.21875 -16.800781 13.234375 -17.117188 13.265625 -17.390625 C 13.285156 -17.578125 13.300781 -17.734375 13.3125 -17.859375 C 13.320312 -17.984375 13.304688 -18.144531 13.265625 -18.34375 C 13.171875 -18.894531 13.125 -19.535156 13.125 -20.265625 C 13.125 -20.992188 13.097656 -21.664062 13.046875 -22.28125 C 13.046875 -22.4375 13.054688 -22.585938 13.078125 -22.734375 C 13.109375 -22.890625 13.132812 -23.046875 13.15625 -23.203125 C 13.195312 -23.523438 13.238281 -23.84375 13.28125 -24.15625 C 13.332031 -24.476562 13.5625 -24.660156 13.96875 -24.703125 C 14.15625 -24.703125 14.328125 -24.695312 14.484375 -24.6875 C 14.648438 -24.675781 14.820312 -24.660156 15 -24.640625 L 18.171875 -24.640625 C 18.335938 -24.617188 18.445312 -24.523438 18.5 -24.359375 C 18.5625 -24.203125 18.59375 -24.023438 18.59375 -23.828125 C 18.59375 -23.640625 18.578125 -23.445312 18.546875 -23.25 C 18.523438 -23.0625 18.515625 -22.910156 18.515625 -22.796875 L 18.515625 -21.796875 C 18.492188 -21.617188 18.5 -21.453125 18.53125 -21.296875 C 18.570312 -21.148438 18.59375 -20.988281 18.59375 -20.8125 C 18.613281 -20.488281 18.625 -20.15625 18.625 -19.8125 C 18.625 -19.476562 18.625 -19.148438 18.625 -18.828125 L 18.65625 -15.859375 C 18.65625 -15.671875 18.664062 -15.5 18.6875 -15.34375 C 18.707031 -15.1875 18.71875 -15.015625 18.71875 -14.828125 C 18.75 -14.460938 18.75 -14.101562 18.71875 -13.75 C 18.695312 -13.394531 18.6875 -13.035156 18.6875 -12.671875 C 18.6875 -12.359375 18.691406 -12.003906 18.703125 -11.609375 C 18.710938 -11.222656 18.695312 -10.875 18.65625 -10.5625 C 18.613281 -10.289062 18.597656 -9.957031 18.609375 -9.5625 C 18.617188 -9.175781 18.644531 -8.835938 18.6875 -8.546875 C 18.707031 -8.222656 18.710938 -7.878906 18.703125 -7.515625 C 18.691406 -7.148438 18.6875 -6.8125 18.6875 -6.5 C 18.664062 -6.15625 18.648438 -5.816406 18.640625 -5.484375 C 18.628906 -5.148438 18.625 -4.8125 18.625 -4.46875 C 18.644531 -4.3125 18.65625 -4.140625 18.65625 -3.953125 C 18.65625 -3.773438 18.664062 -3.609375 18.6875 -3.453125 C 18.738281 -3.265625 18.773438 -3.097656 18.796875 -2.953125 C 18.816406 -2.804688 18.816406 -2.628906 18.796875 -2.421875 C 18.796875 -2.191406 18.796875 -1.859375 18.796875 -1.421875 C 18.796875 -0.992188 18.757812 -0.691406 18.6875 -0.515625 C 18.570312 -0.242188 18.359375 -0.0820312 18.046875 -0.03125 C 17.703125 -0.0078125 17.375 0 17.0625 0 C 16.757812 0 16.4375 -0.0195312 16.09375 -0.0625 C 15.914062 -0.113281 15.75 -0.140625 15.59375 -0.140625 C 15.445312 -0.140625 15.285156 -0.148438 15.109375 -0.171875 C 14.742188 -0.210938 14.40625 -0.21875 14.09375 -0.1875 C 13.789062 -0.15625 13.546875 -0.3125 13.359375 -0.65625 C 13.109375 -1.125 12.859375 -1.65625 12.609375 -2.25 C 12.359375 -2.84375 12.109375 -3.40625 11.859375 -3.9375 C 11.742188 -4.226562 11.601562 -4.476562 11.4375 -4.6875 C 11.28125 -4.90625 11.144531 -5.175781 11.03125 -5.5 C 10.914062 -5.769531 10.785156 -6.035156 10.640625 -6.296875 C 10.492188 -6.566406 10.351562 -6.828125 10.21875 -7.078125 C 10.0625 -7.367188 9.9375 -7.648438 9.84375 -7.921875 C 9.75 -8.203125 9.644531 -8.5 9.53125 -8.8125 C 9.351562 -9.25 9.140625 -9.648438 8.890625 -10.015625 C 8.640625 -10.378906 8.421875 -10.753906 8.234375 -11.140625 C 8.054688 -11.429688 7.875 -11.804688 7.6875 -12.265625 C 7.507812 -12.722656 7.257812 -13.109375 6.9375 -13.421875 Z M 6.9375 -13.421875 "/></g></g></g><g fill="#ffffff" fill-opacity="1"><g transform="translate(2.671701, 51.607153)"><g><path d="M 6.59375 -18.65625 C 6.59375 -18.59375 6.601562 -18.507812 6.625 -18.40625 C 6.644531 -18.300781 6.65625 -18.191406 6.65625 -18.078125 C 6.65625 -17.773438 6.644531 -17.441406 6.625 -17.078125 C 6.601562 -16.722656 6.582031 -16.363281 6.5625 -16 C 6.539062 -15.632812 6.523438 -15.285156 6.515625 -14.953125 C 6.503906 -14.617188 6.5 -14.328125 6.5 -14.078125 C 6.5 -13.710938 6.503906 -13.34375 6.515625 -12.96875 C 6.523438 -12.59375 6.503906 -12.222656 6.453125 -11.859375 C 6.453125 -11.671875 6.445312 -11.472656 6.4375 -11.265625 C 6.425781 -11.066406 6.421875 -10.878906 6.421875 -10.703125 C 6.441406 -10.515625 6.472656 -10.316406 6.515625 -10.109375 C 6.566406 -9.910156 6.59375 -9.695312 6.59375 -9.46875 C 6.59375 -9.050781 6.585938 -8.65625 6.578125 -8.28125 C 6.566406 -7.90625 6.539062 -7.515625 6.5 -7.109375 C 6.445312 -6.703125 6.445312 -6.28125 6.5 -5.84375 C 6.519531 -5.6875 6.53125 -5.484375 6.53125 -5.234375 C 6.53125 -4.984375 6.617188 -4.832031 6.796875 -4.78125 C 7.234375 -4.664062 7.625 -4.722656 7.96875 -4.953125 C 8.351562 -5.203125 8.789062 -5.410156 9.28125 -5.578125 C 9.769531 -5.753906 10.160156 -6.0625 10.453125 -6.5 C 10.703125 -6.832031 10.894531 -7.101562 11.03125 -7.3125 C 11.175781 -7.519531 11.335938 -7.816406 11.515625 -8.203125 C 11.554688 -8.316406 11.625 -8.488281 11.71875 -8.71875 C 11.8125 -8.945312 11.867188 -9.113281 11.890625 -9.21875 C 11.910156 -9.332031 11.921875 -9.4375 11.921875 -9.53125 C 11.921875 -9.625 11.945312 -9.726562 12 -9.84375 C 12.019531 -9.9375 12.035156 -10.015625 12.046875 -10.078125 C 12.054688 -10.148438 12.070312 -10.242188 12.09375 -10.359375 C 12.113281 -10.535156 12.128906 -10.71875 12.140625 -10.90625 C 12.160156 -11.101562 12.191406 -11.304688 12.234375 -11.515625 C 12.253906 -11.703125 12.257812 -11.867188 12.25 -12.015625 C 12.238281 -12.160156 12.234375 -12.320312 12.234375 -12.5 C 12.273438 -12.9375 12.273438 -13.3125 12.234375 -13.625 C 12.191406 -13.945312 12.125 -14.328125 12.03125 -14.765625 C 11.957031 -15.015625 11.859375 -15.304688 11.734375 -15.640625 C 11.609375 -15.984375 11.453125 -16.328125 11.265625 -16.671875 C 11.085938 -17.015625 10.894531 -17.328125 10.6875 -17.609375 C 10.488281 -17.898438 10.285156 -18.125 10.078125 -18.28125 C 9.960938 -18.394531 9.832031 -18.488281 9.6875 -18.5625 C 9.539062 -18.644531 9.398438 -18.742188 9.265625 -18.859375 C 9.054688 -18.992188 8.894531 -19.066406 8.78125 -19.078125 C 8.664062 -19.097656 8.492188 -19.128906 8.265625 -19.171875 C 8.109375 -19.191406 7.929688 -19.222656 7.734375 -19.265625 C 7.546875 -19.316406 7.363281 -19.335938 7.1875 -19.328125 C 7.019531 -19.316406 6.878906 -19.265625 6.765625 -19.171875 C 6.648438 -19.078125 6.59375 -18.90625 6.59375 -18.65625 Z M 3.9375 -24.4375 C 4.019531 -24.4375 4.1875 -24.410156 4.4375 -24.359375 C 4.6875 -24.316406 4.867188 -24.296875 4.984375 -24.296875 C 5.191406 -24.273438 5.382812 -24.265625 5.5625 -24.265625 C 5.75 -24.265625 5.957031 -24.238281 6.1875 -24.1875 C 6.53125 -24.144531 6.875 -24.097656 7.21875 -24.046875 C 7.570312 -24.003906 7.921875 -23.960938 8.265625 -23.921875 C 8.492188 -23.898438 8.785156 -23.832031 9.140625 -23.71875 C 9.492188 -23.601562 9.847656 -23.476562 10.203125 -23.34375 C 10.554688 -23.207031 10.894531 -23.0625 11.21875 -22.90625 C 11.550781 -22.757812 11.8125 -22.628906 12 -22.515625 C 13.0625 -21.835938 13.984375 -21.007812 14.765625 -20.03125 C 15.015625 -19.726562 15.203125 -19.46875 15.328125 -19.25 C 15.453125 -19.039062 15.601562 -18.753906 15.78125 -18.390625 C 15.894531 -18.140625 16.03125 -17.832031 16.1875 -17.46875 C 16.351562 -17.101562 16.457031 -16.78125 16.5 -16.5 C 16.550781 -16.320312 16.582031 -16.132812 16.59375 -15.9375 C 16.601562 -15.75 16.628906 -15.550781 16.671875 -15.34375 C 16.722656 -15.15625 16.757812 -14.96875 16.78125 -14.78125 C 16.800781 -14.601562 16.832031 -14.425781 16.875 -14.25 C 16.925781 -13.84375 16.976562 -13.476562 17.03125 -13.15625 C 17.09375 -12.832031 17.109375 -12.457031 17.078125 -12.03125 C 17.078125 -11.914062 17.050781 -11.710938 17 -11.421875 C 16.945312 -11.140625 16.890625 -10.832031 16.828125 -10.5 C 16.773438 -10.175781 16.71875 -9.851562 16.65625 -9.53125 C 16.601562 -9.21875 16.550781 -8.976562 16.5 -8.8125 C 16.457031 -8.613281 16.4375 -8.425781 16.4375 -8.25 C 16.4375 -8.082031 16.414062 -7.90625 16.375 -7.71875 C 16.34375 -7.519531 16.265625 -7.253906 16.140625 -6.921875 C 16.015625 -6.585938 15.867188 -6.242188 15.703125 -5.890625 C 15.535156 -5.535156 15.359375 -5.203125 15.171875 -4.890625 C 14.992188 -4.585938 14.832031 -4.347656 14.6875 -4.171875 C 14.300781 -3.671875 13.875 -3.210938 13.40625 -2.796875 C 12.945312 -2.390625 12.453125 -2.003906 11.921875 -1.640625 C 11.609375 -1.410156 11.304688 -1.265625 11.015625 -1.203125 C 10.734375 -1.148438 10.421875 -1.035156 10.078125 -0.859375 C 9.460938 -0.535156 8.796875 -0.3125 8.078125 -0.1875 C 7.359375 -0.0625 6.660156 0 5.984375 0 C 5.796875 0 5.601562 -0.0078125 5.40625 -0.03125 C 5.21875 -0.0507812 5.035156 -0.078125 4.859375 -0.109375 C 4.554688 -0.148438 4.257812 -0.160156 3.96875 -0.140625 C 3.6875 -0.117188 3.421875 -0.113281 3.171875 -0.125 C 2.921875 -0.132812 2.703125 -0.179688 2.515625 -0.265625 C 2.335938 -0.359375 2.21875 -0.539062 2.15625 -0.8125 C 2.101562 -1.019531 2.066406 -1.21875 2.046875 -1.40625 C 2.023438 -1.601562 2.003906 -1.796875 1.984375 -1.984375 C 1.929688 -2.578125 1.863281 -3.132812 1.78125 -3.65625 C 1.707031 -4.175781 1.726562 -4.769531 1.84375 -5.4375 C 1.882812 -5.664062 1.898438 -5.847656 1.890625 -5.984375 C 1.878906 -6.117188 1.875 -6.253906 1.875 -6.390625 C 1.875 -6.523438 1.878906 -6.679688 1.890625 -6.859375 C 1.898438 -7.046875 1.929688 -7.289062 1.984375 -7.59375 C 2.023438 -7.8125 2.039062 -8 2.03125 -8.15625 C 2.019531 -8.320312 2.007812 -8.484375 2 -8.640625 C 1.988281 -8.804688 1.984375 -8.984375 1.984375 -9.171875 C 1.984375 -9.367188 1.992188 -9.613281 2.015625 -9.90625 C 2.054688 -10.289062 2.046875 -10.675781 1.984375 -11.0625 C 1.929688 -11.457031 1.921875 -11.847656 1.953125 -12.234375 L 1.953125 -13.265625 C 1.972656 -13.460938 1.988281 -13.65625 2 -13.84375 C 2.007812 -14.039062 2.015625 -14.242188 2.015625 -14.453125 C 2.035156 -14.835938 2.039062 -15.21875 2.03125 -15.59375 C 2.019531 -15.96875 2.015625 -16.351562 2.015625 -16.75 C 2.015625 -16.925781 2.019531 -17.109375 2.03125 -17.296875 C 2.039062 -17.492188 2.046875 -17.6875 2.046875 -17.875 C 2.023438 -18.050781 1.992188 -18.242188 1.953125 -18.453125 C 1.921875 -18.660156 1.90625 -18.851562 1.90625 -19.03125 C 1.863281 -19.394531 1.859375 -19.769531 1.890625 -20.15625 C 1.929688 -20.550781 1.972656 -20.925781 2.015625 -21.28125 C 2.054688 -21.695312 2.070312 -22.054688 2.0625 -22.359375 C 2.050781 -22.671875 2.113281 -23.039062 2.25 -23.46875 C 2.320312 -23.65625 2.394531 -23.800781 2.46875 -23.90625 C 2.550781 -24.007812 2.695312 -24.09375 2.90625 -24.15625 C 3.019531 -24.207031 3.195312 -24.257812 3.4375 -24.3125 C 3.675781 -24.375 3.84375 -24.414062 3.9375 -24.4375 Z M 3.9375 -24.4375 "/></g></g></g><g fill="#ffffff" fill-opacity="1"><g transform="translate(20.818907, 51.607153)"><g><path d="M 11.75 -16.8125 C 11.726562 -17.019531 11.671875 -17.296875 11.578125 -17.640625 C 11.492188 -17.992188 11.40625 -18.253906 11.3125 -18.421875 C 11.007812 -18.878906 10.726562 -19.1875 10.46875 -19.34375 C 10.207031 -19.5 9.816406 -19.632812 9.296875 -19.75 C 8.859375 -19.863281 8.503906 -19.867188 8.234375 -19.765625 C 7.960938 -19.660156 7.664062 -19.460938 7.34375 -19.171875 C 6.84375 -18.710938 6.476562 -18.164062 6.25 -17.53125 C 6.1875 -17.300781 6.128906 -17.125 6.078125 -17 C 6.035156 -16.875 6.003906 -16.757812 5.984375 -16.65625 C 5.960938 -16.550781 5.9375 -16.441406 5.90625 -16.328125 C 5.882812 -16.210938 5.851562 -16.066406 5.8125 -15.890625 C 5.789062 -15.796875 5.757812 -15.710938 5.71875 -15.640625 C 5.6875 -15.578125 5.660156 -15.488281 5.640625 -15.375 C 5.617188 -15.257812 5.59375 -15.09375 5.5625 -14.875 C 5.539062 -14.664062 5.53125 -14.445312 5.53125 -14.21875 C 5.53125 -13.988281 5.53125 -13.765625 5.53125 -13.546875 C 5.53125 -13.328125 5.53125 -13.148438 5.53125 -13.015625 L 5.5625 -11.171875 C 5.5625 -11.054688 5.554688 -10.953125 5.546875 -10.859375 C 5.535156 -10.773438 5.53125 -10.6875 5.53125 -10.59375 C 5.53125 -10.269531 5.535156 -9.863281 5.546875 -9.375 C 5.554688 -8.882812 5.597656 -8.492188 5.671875 -8.203125 C 5.742188 -7.878906 5.796875 -7.648438 5.828125 -7.515625 C 5.859375 -7.378906 5.894531 -7.257812 5.9375 -7.15625 C 5.988281 -7.050781 6.050781 -6.941406 6.125 -6.828125 C 6.207031 -6.710938 6.332031 -6.519531 6.5 -6.25 C 6.601562 -6.09375 6.695312 -5.960938 6.78125 -5.859375 C 6.863281 -5.753906 6.992188 -5.644531 7.171875 -5.53125 C 7.265625 -5.46875 7.40625 -5.382812 7.59375 -5.28125 C 7.789062 -5.175781 7.945312 -5.101562 8.0625 -5.0625 C 8.289062 -5.007812 8.457031 -4.96875 8.5625 -4.9375 C 8.664062 -4.90625 8.84375 -4.945312 9.09375 -5.0625 C 9.226562 -5.125 9.363281 -5.207031 9.5 -5.3125 C 9.632812 -5.414062 9.769531 -5.515625 9.90625 -5.609375 C 10 -5.648438 10.097656 -5.742188 10.203125 -5.890625 C 10.304688 -6.035156 10.398438 -6.195312 10.484375 -6.375 C 10.578125 -6.5625 10.660156 -6.738281 10.734375 -6.90625 C 10.816406 -7.082031 10.882812 -7.21875 10.9375 -7.3125 C 11 -7.5 11.066406 -7.660156 11.140625 -7.796875 C 11.210938 -7.929688 11.28125 -8.097656 11.34375 -8.296875 C 11.382812 -8.484375 11.425781 -8.664062 11.46875 -8.84375 C 11.519531 -9.03125 11.570312 -9.210938 11.625 -9.390625 C 11.644531 -9.503906 11.65625 -9.613281 11.65625 -9.71875 C 11.65625 -9.820312 11.675781 -9.929688 11.71875 -10.046875 C 11.738281 -10.160156 11.753906 -10.25 11.765625 -10.3125 C 11.785156 -10.382812 11.804688 -10.476562 11.828125 -10.59375 C 11.828125 -10.84375 11.835938 -11.054688 11.859375 -11.234375 C 11.878906 -11.421875 11.890625 -11.640625 11.890625 -11.890625 C 11.890625 -12.097656 11.878906 -12.300781 11.859375 -12.5 C 11.835938 -12.707031 11.828125 -12.925781 11.828125 -13.15625 L 11.828125 -15.609375 C 11.828125 -15.816406 11.8125 -16.023438 11.78125 -16.234375 C 11.757812 -16.441406 11.75 -16.632812 11.75 -16.8125 Z M 8.84375 -24.46875 C 9.625 -24.445312 10.296875 -24.332031 10.859375 -24.125 C 11.429688 -23.914062 12.035156 -23.617188 12.671875 -23.234375 C 12.878906 -23.097656 13.117188 -22.910156 13.390625 -22.671875 C 13.671875 -22.429688 13.898438 -22.222656 14.078125 -22.046875 C 14.328125 -21.796875 14.523438 -21.566406 14.671875 -21.359375 C 14.828125 -21.148438 14.992188 -20.898438 15.171875 -20.609375 C 15.554688 -20.035156 15.84375 -19.394531 16.03125 -18.6875 C 16.226562 -17.976562 16.328125 -17.296875 16.328125 -16.640625 C 16.328125 -16.234375 16.34375 -15.820312 16.375 -15.40625 C 16.414062 -15 16.425781 -14.59375 16.40625 -14.1875 C 16.40625 -13.789062 16.398438 -13.421875 16.390625 -13.078125 C 16.378906 -12.742188 16.394531 -12.382812 16.4375 -12 C 16.476562 -11.5625 16.484375 -11.175781 16.453125 -10.84375 C 16.421875 -10.519531 16.367188 -10.140625 16.296875 -9.703125 C 16.253906 -9.335938 16.207031 -8.988281 16.15625 -8.65625 C 16.113281 -8.332031 16.046875 -7.988281 15.953125 -7.625 C 15.816406 -7.03125 15.628906 -6.378906 15.390625 -5.671875 C 15.148438 -4.960938 14.875 -4.359375 14.5625 -3.859375 C 14.375 -3.585938 14.21875 -3.3125 14.09375 -3.03125 C 13.96875 -2.757812 13.78125 -2.5 13.53125 -2.25 C 13.488281 -2.1875 13.40625 -2.101562 13.28125 -2 C 13.15625 -1.894531 13.015625 -1.78125 12.859375 -1.65625 C 12.710938 -1.53125 12.570312 -1.414062 12.4375 -1.3125 C 12.300781 -1.207031 12.195312 -1.132812 12.125 -1.09375 C 11.789062 -0.882812 11.421875 -0.703125 11.015625 -0.546875 C 10.617188 -0.390625 10.207031 -0.257812 9.78125 -0.15625 C 9.363281 -0.0507812 8.941406 0 8.515625 0 C 8.097656 0 7.695312 -0.0664062 7.3125 -0.203125 C 7.0625 -0.296875 6.835938 -0.363281 6.640625 -0.40625 C 6.453125 -0.457031 6.257812 -0.515625 6.0625 -0.578125 C 5.875 -0.648438 5.675781 -0.75 5.46875 -0.875 C 5.257812 -1 5.019531 -1.1875 4.75 -1.4375 C 4.632812 -1.550781 4.515625 -1.648438 4.390625 -1.734375 C 4.265625 -1.828125 4.144531 -1.929688 4.03125 -2.046875 C 3.914062 -2.160156 3.8125 -2.269531 3.71875 -2.375 C 3.632812 -2.476562 3.535156 -2.585938 3.421875 -2.703125 C 3.171875 -2.953125 2.960938 -3.191406 2.796875 -3.421875 C 2.640625 -3.648438 2.484375 -3.898438 2.328125 -4.171875 C 2.253906 -4.304688 2.171875 -4.441406 2.078125 -4.578125 C 1.992188 -4.710938 1.914062 -4.859375 1.84375 -5.015625 C 1.632812 -5.492188 1.46875 -5.984375 1.34375 -6.484375 C 1.21875 -6.992188 1.113281 -7.507812 1.03125 -8.03125 C 0.882812 -8.738281 0.796875 -9.460938 0.765625 -10.203125 C 0.734375 -10.941406 0.707031 -11.675781 0.6875 -12.40625 C 0.664062 -13.90625 0.800781 -15.285156 1.09375 -16.546875 C 1.382812 -17.816406 1.863281 -19.125 2.53125 -20.46875 C 2.800781 -21.007812 3.140625 -21.523438 3.546875 -22.015625 C 3.960938 -22.515625 4.410156 -22.929688 4.890625 -23.265625 C 5.523438 -23.722656 6.148438 -24.039062 6.765625 -24.21875 C 7.378906 -24.40625 8.070312 -24.488281 8.84375 -24.46875 Z M 8.84375 -24.46875 "/></g></g></g><g fill="#ffffff" fill-opacity="1"><g transform="translate(37.975027, 51.607153)"><g><path d="M 6.9375 -13.421875 C 6.894531 -13.222656 6.859375 -12.925781 6.828125 -12.53125 C 6.804688 -12.144531 6.804688 -11.851562 6.828125 -11.65625 C 6.859375 -11.425781 6.878906 -11.242188 6.890625 -11.109375 C 6.898438 -10.972656 6.910156 -10.84375 6.921875 -10.71875 C 6.929688 -10.59375 6.929688 -10.453125 6.921875 -10.296875 C 6.910156 -10.148438 6.878906 -9.960938 6.828125 -9.734375 C 6.785156 -9.484375 6.773438 -9.132812 6.796875 -8.6875 C 6.816406 -8.25 6.84375 -7.894531 6.875 -7.625 C 6.914062 -7.238281 6.898438 -6.894531 6.828125 -6.59375 C 6.765625 -6.300781 6.734375 -5.972656 6.734375 -5.609375 C 6.734375 -5.421875 6.75 -5.25 6.78125 -5.09375 C 6.8125 -4.9375 6.84375 -4.765625 6.875 -4.578125 C 6.894531 -4.035156 6.9375 -3.519531 7 -3.03125 C 7.070312 -2.539062 7.097656 -2.03125 7.078125 -1.5 C 7.054688 -1.070312 7.015625 -0.75 6.953125 -0.53125 C 6.898438 -0.3125 6.617188 -0.210938 6.109375 -0.234375 C 5.742188 -0.234375 5.390625 -0.226562 5.046875 -0.21875 C 4.710938 -0.207031 4.363281 -0.238281 4 -0.3125 C 3.8125 -0.351562 3.648438 -0.375 3.515625 -0.375 C 3.378906 -0.375 3.222656 -0.375 3.046875 -0.375 C 2.796875 -0.351562 2.582031 -0.34375 2.40625 -0.34375 C 2.238281 -0.34375 2.101562 -0.363281 2 -0.40625 C 1.894531 -0.457031 1.832031 -0.554688 1.8125 -0.703125 C 1.789062 -0.847656 1.789062 -1.054688 1.8125 -1.328125 C 1.851562 -1.765625 1.863281 -2.113281 1.84375 -2.375 C 1.820312 -2.632812 1.800781 -2.972656 1.78125 -3.390625 C 1.757812 -3.566406 1.757812 -3.722656 1.78125 -3.859375 C 1.800781 -3.992188 1.8125 -4.15625 1.8125 -4.34375 C 1.851562 -4.6875 1.867188 -5.03125 1.859375 -5.375 C 1.847656 -5.726562 1.851562 -6.085938 1.875 -6.453125 C 1.894531 -7.484375 1.898438 -8.519531 1.890625 -9.5625 C 1.878906 -10.613281 1.863281 -11.664062 1.84375 -12.71875 C 1.84375 -13.445312 1.816406 -14.144531 1.765625 -14.8125 C 1.722656 -15.488281 1.75 -16.175781 1.84375 -16.875 C 1.882812 -17.238281 1.882812 -17.566406 1.84375 -17.859375 C 1.800781 -18.160156 1.78125 -18.492188 1.78125 -18.859375 C 1.757812 -19.179688 1.757812 -19.523438 1.78125 -19.890625 C 1.800781 -20.253906 1.800781 -20.59375 1.78125 -20.90625 C 1.726562 -21.300781 1.707031 -21.648438 1.71875 -21.953125 C 1.738281 -22.265625 1.734375 -22.613281 1.703125 -23 C 1.703125 -23.09375 1.695312 -23.226562 1.6875 -23.40625 C 1.675781 -23.59375 1.675781 -23.78125 1.6875 -23.96875 C 1.695312 -24.164062 1.722656 -24.34375 1.765625 -24.5 C 1.816406 -24.65625 1.890625 -24.757812 1.984375 -24.8125 C 2.023438 -24.832031 2.128906 -24.847656 2.296875 -24.859375 C 2.472656 -24.867188 2.675781 -24.878906 2.90625 -24.890625 C 3.132812 -24.898438 3.34375 -24.90625 3.53125 -24.90625 C 3.726562 -24.90625 3.863281 -24.90625 3.9375 -24.90625 C 4.226562 -24.90625 4.554688 -24.882812 4.921875 -24.84375 C 5.285156 -24.800781 5.628906 -24.753906 5.953125 -24.703125 C 6.316406 -24.660156 6.570312 -24.539062 6.71875 -24.34375 C 6.863281 -24.15625 7.003906 -23.898438 7.140625 -23.578125 C 8.003906 -21.410156 9.019531 -19.359375 10.1875 -17.421875 C 10.34375 -17.148438 10.472656 -16.890625 10.578125 -16.640625 C 10.679688 -16.390625 10.8125 -16.128906 10.96875 -15.859375 C 11.125 -15.628906 11.25 -15.375 11.34375 -15.09375 C 11.4375 -14.820312 11.5625 -14.5625 11.71875 -14.3125 C 11.769531 -14.25 11.875 -14.054688 12.03125 -13.734375 C 12.1875 -13.421875 12.351562 -13.082031 12.53125 -12.71875 C 12.71875 -12.351562 12.894531 -12.023438 13.0625 -11.734375 C 13.238281 -11.453125 13.335938 -11.320312 13.359375 -11.34375 C 13.378906 -11.363281 13.382812 -11.566406 13.375 -11.953125 C 13.363281 -12.347656 13.351562 -12.789062 13.34375 -13.28125 C 13.332031 -13.769531 13.316406 -14.234375 13.296875 -14.671875 C 13.273438 -15.117188 13.265625 -15.390625 13.265625 -15.484375 C 13.234375 -15.753906 13.21875 -16.070312 13.21875 -16.4375 C 13.21875 -16.800781 13.234375 -17.117188 13.265625 -17.390625 C 13.285156 -17.578125 13.300781 -17.734375 13.3125 -17.859375 C 13.320312 -17.984375 13.304688 -18.144531 13.265625 -18.34375 C 13.171875 -18.894531 13.125 -19.535156 13.125 -20.265625 C 13.125 -20.992188 13.097656 -21.664062 13.046875 -22.28125 C 13.046875 -22.4375 13.054688 -22.585938 13.078125 -22.734375 C 13.109375 -22.890625 13.132812 -23.046875 13.15625 -23.203125 C 13.195312 -23.523438 13.238281 -23.84375 13.28125 -24.15625 C 13.332031 -24.476562 13.5625 -24.660156 13.96875 -24.703125 C 14.15625 -24.703125 14.328125 -24.695312 14.484375 -24.6875 C 14.648438 -24.675781 14.820312 -24.660156 15 -24.640625 L 18.171875 -24.640625 C 18.335938 -24.617188 18.445312 -24.523438 18.5 -24.359375 C 18.5625 -24.203125 18.59375 -24.023438 18.59375 -23.828125 C 18.59375 -23.640625 18.578125 -23.445312 18.546875 -23.25 C 18.523438 -23.0625 18.515625 -22.910156 18.515625 -22.796875 L 18.515625 -21.796875 C 18.492188 -21.617188 18.5 -21.453125 18.53125 -21.296875 C 18.570312 -21.148438 18.59375 -20.988281 18.59375 -20.8125 C 18.613281 -20.488281 18.625 -20.15625 18.625 -19.8125 C 18.625 -19.476562 18.625 -19.148438 18.625 -18.828125 L 18.65625 -15.859375 C 18.65625 -15.671875 18.664062 -15.5 18.6875 -15.34375 C 18.707031 -15.1875 18.71875 -15.015625 18.71875 -14.828125 C 18.75 -14.460938 18.75 -14.101562 18.71875 -13.75 C 18.695312 -13.394531 18.6875 -13.035156 18.6875 -12.671875 C 18.6875 -12.359375 18.691406 -12.003906 18.703125 -11.609375 C 18.710938 -11.222656 18.695312 -10.875 18.65625 -10.5625 C 18.613281 -10.289062 18.597656 -9.957031 18.609375 -9.5625 C 18.617188 -9.175781 18.644531 -8.835938 18.6875 -8.546875 C 18.707031 -8.222656 18.710938 -7.878906 18.703125 -7.515625 C 18.691406 -7.148438 18.6875 -6.8125 18.6875 -6.5 C 18.664062 -6.15625 18.648438 -5.816406 18.640625 -5.484375 C 18.628906 -5.148438 18.625 -4.8125 18.625 -4.46875 C 18.644531 -4.3125 18.65625 -4.140625 18.65625 -3.953125 C 18.65625 -3.773438 18.664062 -3.609375 18.6875 -3.453125 C 18.738281 -3.265625 18.773438 -3.097656 18.796875 -2.953125 C 18.816406 -2.804688 18.816406 -2.628906 18.796875 -2.421875 C 18.796875 -2.191406 18.796875 -1.859375 18.796875 -1.421875 C 18.796875 -0.992188 18.757812 -0.691406 18.6875 -0.515625 C 18.570312 -0.242188 18.359375 -0.0820312 18.046875 -0.03125 C 17.703125 -0.0078125 17.375 0 17.0625 0 C 16.757812 0 16.4375 -0.0195312 16.09375 -0.0625 C 15.914062 -0.113281 15.75 -0.140625 15.59375 -0.140625 C 15.445312 -0.140625 15.285156 -0.148438 15.109375 -0.171875 C 14.742188 -0.210938 14.40625 -0.21875 14.09375 -0.1875 C 13.789062 -0.15625 13.546875 -0.3125 13.359375 -0.65625 C 13.109375 -1.125 12.859375 -1.65625 12.609375 -2.25 C 12.359375 -2.84375 12.109375 -3.40625 11.859375 -3.9375 C 11.742188 -4.226562 11.601562 -4.476562 11.4375 -4.6875 C 11.28125 -4.90625 11.144531 -5.175781 11.03125 -5.5 C 10.914062 -5.769531 10.785156 -6.035156 10.640625 -6.296875 C 10.492188 -6.566406 10.351562 -6.828125 10.21875 -7.078125 C 10.0625 -7.367188 9.9375 -7.648438 9.84375 -7.921875 C 9.75 -8.203125 9.644531 -8.5 9.53125 -8.8125 C 9.351562 -9.25 9.140625 -9.648438 8.890625 -10.015625 C 8.640625 -10.378906 8.421875 -10.753906 8.234375 -11.140625 C 8.054688 -11.429688 7.875 -11.804688 7.6875 -12.265625 C 7.507812 -12.722656 7.257812 -13.109375 6.9375 -13.421875 Z M 6.9375 -13.421875 "/></g></g></g><g fill="#ffffff" fill-opacity="1"><g transform="translate(58.51452, 51.607153)"><g><path d="M 6.359375 -19.71875 C 6.359375 -19.675781 6.378906 -19.585938 6.421875 -19.453125 C 6.472656 -19.328125 6.472656 -19.1875 6.421875 -19.03125 C 6.398438 -18.914062 6.382812 -18.859375 6.375 -18.859375 C 6.363281 -18.859375 6.378906 -18.800781 6.421875 -18.6875 C 6.472656 -18.570312 6.488281 -18.515625 6.46875 -18.515625 C 6.457031 -18.515625 6.453125 -18.457031 6.453125 -18.34375 C 6.453125 -18.257812 6.460938 -18.195312 6.484375 -18.15625 C 6.515625 -18.125 6.53125 -18.0625 6.53125 -17.96875 L 6.53125 -16.78125 C 6.507812 -16.570312 6.503906 -16.335938 6.515625 -16.078125 C 6.523438 -15.816406 6.550781 -15.570312 6.59375 -15.34375 C 6.613281 -15.269531 6.625 -15.195312 6.625 -15.125 C 6.625 -15.0625 6.632812 -15 6.65625 -14.9375 C 6.6875 -14.84375 6.707031 -14.796875 6.71875 -14.796875 C 6.726562 -14.796875 6.78125 -14.773438 6.875 -14.734375 C 6.9375 -14.679688 6.976562 -14.648438 7 -14.640625 C 7.03125 -14.628906 7.085938 -14.625 7.171875 -14.625 L 7.6875 -14.5625 C 7.875 -14.582031 7.972656 -14.597656 7.984375 -14.609375 C 7.992188 -14.617188 8.054688 -14.613281 8.171875 -14.59375 C 8.253906 -14.59375 8.316406 -14.601562 8.359375 -14.625 C 8.410156 -14.644531 8.460938 -14.644531 8.515625 -14.625 C 8.578125 -14.625 8.609375 -14.617188 8.609375 -14.609375 C 8.609375 -14.597656 8.628906 -14.59375 8.671875 -14.59375 L 9.5625 -14.59375 C 9.84375 -14.59375 10.1875 -14.597656 10.59375 -14.609375 C 11 -14.617188 11.363281 -14.613281 11.6875 -14.59375 C 11.78125 -14.59375 11.867188 -14.601562 11.953125 -14.625 C 12.046875 -14.644531 12.117188 -14.566406 12.171875 -14.390625 C 12.171875 -14.335938 12.191406 -14.222656 12.234375 -14.046875 C 12.234375 -13.972656 12.226562 -13.925781 12.21875 -13.90625 C 12.207031 -13.882812 12.203125 -13.851562 12.203125 -13.8125 C 12.203125 -13.78125 12.203125 -13.734375 12.203125 -13.671875 C 12.203125 -13.617188 12.222656 -13.523438 12.265625 -13.390625 L 12.265625 -11.953125 C 12.285156 -11.773438 12.257812 -11.617188 12.1875 -11.484375 C 12.125 -11.347656 11.976562 -11.269531 11.75 -11.25 C 11.632812 -11.21875 11.570312 -11.203125 11.5625 -11.203125 C 11.550781 -11.203125 11.5 -11.21875 11.40625 -11.25 C 11.300781 -11.269531 11.238281 -11.265625 11.21875 -11.234375 C 11.207031 -11.210938 11.171875 -11.191406 11.109375 -11.171875 L 10.3125 -11.140625 C 10.113281 -11.117188 9.894531 -11.09375 9.65625 -11.0625 C 9.414062 -11.039062 9.203125 -11.046875 9.015625 -11.078125 C 8.972656 -11.078125 8.90625 -11.082031 8.8125 -11.09375 C 8.71875 -11.101562 8.648438 -11.109375 8.609375 -11.109375 C 8.566406 -11.109375 8.515625 -11.085938 8.453125 -11.046875 C 8.398438 -11.015625 8.347656 -11 8.296875 -11 C 8.191406 -11 8.140625 -11.015625 8.140625 -11.046875 C 8.140625 -11.085938 8.082031 -11.082031 7.96875 -11.03125 C 7.894531 -11.007812 7.832031 -11.003906 7.78125 -11.015625 C 7.738281 -11.023438 7.6875 -11.03125 7.625 -11.03125 C 7.507812 -11.0625 7.4375 -11.078125 7.40625 -11.078125 C 7.382812 -11.078125 7.332031 -11.050781 7.25 -11 C 7.15625 -10.976562 7.078125 -10.972656 7.015625 -10.984375 C 6.960938 -10.992188 6.910156 -10.988281 6.859375 -10.96875 C 6.816406 -10.945312 6.769531 -10.90625 6.71875 -10.84375 C 6.675781 -10.789062 6.613281 -10.6875 6.53125 -10.53125 C 6.476562 -10.414062 6.460938 -10.359375 6.484375 -10.359375 C 6.515625 -10.359375 6.519531 -10.300781 6.5 -10.1875 C 6.46875 -10.09375 6.445312 -9.984375 6.4375 -9.859375 C 6.425781 -9.734375 6.429688 -9.625 6.453125 -9.53125 C 6.484375 -9.414062 6.488281 -9.359375 6.46875 -9.359375 C 6.457031 -9.359375 6.441406 -9.3125 6.421875 -9.21875 C 6.398438 -8.96875 6.398438 -8.71875 6.421875 -8.46875 C 6.441406 -8.21875 6.441406 -7.96875 6.421875 -7.71875 C 6.421875 -7.601562 6.425781 -7.488281 6.4375 -7.375 C 6.445312 -7.257812 6.441406 -7.148438 6.421875 -7.046875 C 6.421875 -6.816406 6.429688 -6.539062 6.453125 -6.21875 C 6.484375 -5.894531 6.5 -5.644531 6.5 -5.46875 C 6.5 -5.351562 6.484375 -5.222656 6.453125 -5.078125 C 6.429688 -4.929688 6.445312 -4.8125 6.5 -4.71875 C 6.632812 -4.53125 6.851562 -4.453125 7.15625 -4.484375 C 7.46875 -4.523438 7.710938 -4.535156 7.890625 -4.515625 C 8.054688 -4.515625 8.269531 -4.515625 8.53125 -4.515625 C 8.789062 -4.515625 9.066406 -4.515625 9.359375 -4.515625 C 9.660156 -4.515625 9.941406 -4.519531 10.203125 -4.53125 C 10.460938 -4.539062 10.671875 -4.546875 10.828125 -4.546875 C 11.109375 -4.585938 11.351562 -4.578125 11.5625 -4.515625 C 11.78125 -4.460938 12.015625 -4.4375 12.265625 -4.4375 C 12.535156 -4.4375 12.734375 -4.414062 12.859375 -4.375 C 12.984375 -4.332031 13.070312 -4.238281 13.125 -4.09375 C 13.1875 -3.957031 13.21875 -3.753906 13.21875 -3.484375 C 13.21875 -3.210938 13.234375 -2.835938 13.265625 -2.359375 C 13.285156 -1.878906 13.296875 -1.492188 13.296875 -1.203125 C 13.296875 -0.921875 13.253906 -0.703125 13.171875 -0.546875 C 13.085938 -0.390625 12.960938 -0.285156 12.796875 -0.234375 C 12.628906 -0.191406 12.394531 -0.171875 12.09375 -0.171875 C 11.820312 -0.148438 11.566406 -0.144531 11.328125 -0.15625 C 11.085938 -0.164062 10.84375 -0.171875 10.59375 -0.171875 C 9.726562 -0.210938 8.945312 -0.179688 8.25 -0.078125 C 7.550781 0.015625 6.796875 0.03125 5.984375 -0.03125 C 5.660156 -0.0507812 5.40625 -0.0703125 5.21875 -0.09375 C 5.039062 -0.125 4.78125 -0.113281 4.4375 -0.0625 C 4.125 -0.0195312 3.867188 -0.0195312 3.671875 -0.0625 C 3.484375 -0.113281 3.226562 -0.140625 2.90625 -0.140625 C 2.632812 -0.160156 2.414062 -0.195312 2.25 -0.25 C 2.09375 -0.3125 1.992188 -0.5 1.953125 -0.8125 C 1.921875 -1.070312 1.894531 -1.328125 1.875 -1.578125 C 1.851562 -1.828125 1.851562 -2.078125 1.875 -2.328125 C 1.875 -2.578125 1.867188 -2.816406 1.859375 -3.046875 C 1.847656 -3.273438 1.832031 -3.515625 1.8125 -3.765625 C 1.8125 -4.015625 1.816406 -4.269531 1.828125 -4.53125 C 1.835938 -4.789062 1.84375 -5.046875 1.84375 -5.296875 C 1.84375 -5.816406 1.832031 -6.34375 1.8125 -6.875 C 1.789062 -7.414062 1.800781 -7.945312 1.84375 -8.46875 C 1.882812 -8.882812 1.910156 -9.203125 1.921875 -9.421875 C 1.941406 -9.648438 1.953125 -9.851562 1.953125 -10.03125 C 1.953125 -10.21875 1.9375 -10.414062 1.90625 -10.625 C 1.882812 -10.832031 1.875 -11.117188 1.875 -11.484375 L 1.875 -12.265625 C 1.875 -12.421875 1.867188 -12.566406 1.859375 -12.703125 C 1.847656 -12.847656 1.84375 -12.988281 1.84375 -13.125 C 1.820312 -13.375 1.835938 -13.601562 1.890625 -13.8125 C 1.953125 -14.03125 1.972656 -14.265625 1.953125 -14.515625 C 1.921875 -14.773438 1.878906 -15.007812 1.828125 -15.21875 C 1.773438 -15.4375 1.734375 -15.671875 1.703125 -15.921875 L 1.84375 -18.828125 C 1.882812 -19.035156 1.925781 -19.25 1.96875 -19.46875 C 2.019531 -19.695312 2.046875 -19.914062 2.046875 -20.125 C 2.066406 -20.3125 2.039062 -20.515625 1.96875 -20.734375 C 1.90625 -20.960938 1.875 -21.203125 1.875 -21.453125 C 1.851562 -21.679688 1.835938 -21.925781 1.828125 -22.1875 C 1.816406 -22.457031 1.820312 -22.703125 1.84375 -22.921875 C 1.863281 -23.316406 1.894531 -23.597656 1.9375 -23.765625 C 1.988281 -23.929688 2.070312 -24.050781 2.1875 -24.125 C 2.300781 -24.195312 2.484375 -24.234375 2.734375 -24.234375 C 2.984375 -24.234375 3.328125 -24.242188 3.765625 -24.265625 C 4.015625 -24.285156 4.273438 -24.296875 4.546875 -24.296875 C 4.816406 -24.296875 5.078125 -24.316406 5.328125 -24.359375 C 5.578125 -24.390625 5.828125 -24.414062 6.078125 -24.4375 C 6.328125 -24.457031 6.578125 -24.457031 6.828125 -24.4375 C 7.335938 -24.382812 7.828125 -24.351562 8.296875 -24.34375 C 8.773438 -24.332031 9.28125 -24.304688 9.8125 -24.265625 C 10.257812 -24.210938 10.601562 -24.179688 10.84375 -24.171875 C 11.082031 -24.160156 11.429688 -24.179688 11.890625 -24.234375 C 12.003906 -24.234375 12.125 -24.242188 12.25 -24.265625 C 12.375 -24.285156 12.492188 -24.304688 12.609375 -24.328125 C 12.953125 -24.347656 13.132812 -24.242188 13.15625 -24.015625 C 13.175781 -23.796875 13.210938 -23.5625 13.265625 -23.3125 C 13.304688 -23.007812 13.328125 -22.765625 13.328125 -22.578125 C 13.328125 -22.398438 13.304688 -22.175781 13.265625 -21.90625 C 13.210938 -21.488281 13.191406 -21.15625 13.203125 -20.90625 C 13.210938 -20.65625 13.1875 -20.460938 13.125 -20.328125 C 13.070312 -20.191406 12.972656 -20.097656 12.828125 -20.046875 C 12.679688 -20.003906 12.414062 -19.984375 12.03125 -19.984375 C 11.78125 -20.015625 11.539062 -20.003906 11.3125 -19.953125 C 11.082031 -19.910156 10.84375 -19.898438 10.59375 -19.921875 C 10.457031 -19.921875 10.25 -19.925781 9.96875 -19.9375 C 9.695312 -19.945312 9.40625 -19.953125 9.09375 -19.953125 C 8.789062 -19.953125 8.503906 -19.953125 8.234375 -19.953125 C 7.960938 -19.953125 7.769531 -19.953125 7.65625 -19.953125 C 7.40625 -19.929688 7.179688 -19.925781 6.984375 -19.9375 C 6.796875 -19.945312 6.585938 -19.875 6.359375 -19.71875 Z M 6.359375 -19.71875 "/></g></g></g><g fill="#ffffff" fill-opacity="1"><g transform="translate(72.526485, 51.607153)"><g><path d="M 7.078125 -18.421875 C 7.117188 -18.117188 7.140625 -17.9375 7.140625 -17.875 C 7.140625 -17.820312 7.128906 -17.660156 7.109375 -17.390625 C 7.109375 -17.328125 7.113281 -17.273438 7.125 -17.234375 C 7.132812 -17.203125 7.140625 -17.140625 7.140625 -17.046875 L 7.109375 -15.484375 L 7.109375 -14.796875 C 7.109375 -14.679688 7.117188 -14.5625 7.140625 -14.4375 C 7.160156 -14.3125 7.171875 -14.191406 7.171875 -14.078125 C 7.171875 -13.960938 7.164062 -13.878906 7.15625 -13.828125 C 7.144531 -13.785156 7.140625 -13.753906 7.140625 -13.734375 C 7.140625 -13.710938 7.148438 -13.675781 7.171875 -13.625 C 7.191406 -13.582031 7.226562 -13.503906 7.28125 -13.390625 C 7.34375 -13.210938 7.378906 -13.128906 7.390625 -13.140625 C 7.410156 -13.148438 7.507812 -13.132812 7.6875 -13.09375 C 7.84375 -13.0625 8.050781 -13.039062 8.3125 -13.03125 C 8.582031 -13.019531 8.851562 -13.023438 9.125 -13.046875 C 9.394531 -13.078125 9.648438 -13.113281 9.890625 -13.15625 C 10.128906 -13.195312 10.304688 -13.253906 10.421875 -13.328125 C 10.535156 -13.390625 10.628906 -13.425781 10.703125 -13.4375 C 10.785156 -13.457031 10.882812 -13.507812 11 -13.59375 C 11.1875 -13.707031 11.4375 -13.878906 11.75 -14.109375 C 12.070312 -14.335938 12.289062 -14.53125 12.40625 -14.6875 C 12.65625 -15.050781 12.863281 -15.453125 13.03125 -15.890625 C 13.207031 -16.328125 13.25 -16.757812 13.15625 -17.1875 C 13.132812 -17.34375 13.078125 -17.5625 12.984375 -17.84375 C 12.890625 -18.132812 12.785156 -18.328125 12.671875 -18.421875 C 12.609375 -18.484375 12.539062 -18.554688 12.46875 -18.640625 C 12.40625 -18.722656 12.335938 -18.796875 12.265625 -18.859375 C 11.992188 -19.109375 11.769531 -19.25 11.59375 -19.28125 C 11.425781 -19.320312 11.265625 -19.363281 11.109375 -19.40625 C 10.992188 -19.457031 10.890625 -19.5 10.796875 -19.53125 C 10.703125 -19.5625 10.585938 -19.585938 10.453125 -19.609375 C 10.296875 -19.640625 10.085938 -19.660156 9.828125 -19.671875 C 9.566406 -19.679688 9.296875 -19.6875 9.015625 -19.6875 C 8.742188 -19.6875 8.476562 -19.679688 8.21875 -19.671875 C 7.957031 -19.660156 7.734375 -19.640625 7.546875 -19.609375 C 7.367188 -19.566406 7.257812 -19.523438 7.21875 -19.484375 C 7.1875 -19.453125 7.171875 -19.347656 7.171875 -19.171875 C 7.148438 -19.054688 7.125 -18.929688 7.09375 -18.796875 C 7.0625 -18.660156 7.054688 -18.535156 7.078125 -18.421875 Z M 4.515625 -24.46875 C 4.960938 -24.488281 5.46875 -24.488281 6.03125 -24.46875 C 6.59375 -24.445312 7.097656 -24.425781 7.546875 -24.40625 C 8.046875 -24.40625 8.539062 -24.421875 9.03125 -24.453125 C 9.519531 -24.484375 10.03125 -24.476562 10.5625 -24.4375 C 11.519531 -24.382812 12.4375 -24.222656 13.3125 -23.953125 C 14.1875 -23.679688 15 -23.226562 15.75 -22.59375 C 15.820312 -22.519531 15.925781 -22.382812 16.0625 -22.1875 C 16.195312 -22 16.332031 -21.785156 16.46875 -21.546875 C 16.601562 -21.304688 16.726562 -21.078125 16.84375 -20.859375 C 16.957031 -20.640625 17.035156 -20.472656 17.078125 -20.359375 C 17.222656 -19.992188 17.347656 -19.5625 17.453125 -19.0625 C 17.566406 -18.5625 17.644531 -18.050781 17.6875 -17.53125 C 17.738281 -17.007812 17.75 -16.492188 17.71875 -15.984375 C 17.6875 -15.484375 17.601562 -15.050781 17.46875 -14.6875 C 17.125 -13.820312 16.742188 -13.003906 16.328125 -12.234375 C 16.191406 -11.984375 16.066406 -11.769531 15.953125 -11.59375 C 15.835938 -11.425781 15.722656 -11.28125 15.609375 -11.15625 C 15.503906 -11.03125 15.367188 -10.90625 15.203125 -10.78125 C 15.046875 -10.65625 14.851562 -10.5 14.625 -10.3125 C 14.445312 -10.175781 14.238281 -10.070312 14 -10 C 13.757812 -9.9375 13.566406 -9.835938 13.421875 -9.703125 C 13.265625 -9.523438 13.289062 -9.351562 13.5 -9.1875 C 13.707031 -9.03125 13.878906 -8.914062 14.015625 -8.84375 C 14.460938 -8.664062 14.832031 -8.460938 15.125 -8.234375 C 15.425781 -8.003906 15.738281 -7.707031 16.0625 -7.34375 C 16.40625 -6.9375 16.617188 -6.515625 16.703125 -6.078125 C 16.796875 -5.648438 16.867188 -5.171875 16.921875 -4.640625 C 16.960938 -4.191406 17.015625 -3.691406 17.078125 -3.140625 C 17.148438 -2.597656 17.175781 -2.097656 17.15625 -1.640625 C 17.132812 -1.117188 17.078125 -0.742188 16.984375 -0.515625 C 16.890625 -0.285156 16.765625 -0.132812 16.609375 -0.0625 C 16.453125 0 16.273438 0.015625 16.078125 -0.015625 C 15.878906 -0.046875 15.679688 -0.0625 15.484375 -0.0625 C 14.953125 -0.09375 14.460938 -0.0859375 14.015625 -0.046875 C 13.578125 -0.015625 13.039062 -0.0351562 12.40625 -0.109375 C 12.039062 -0.148438 11.769531 -0.222656 11.59375 -0.328125 C 11.425781 -0.429688 11.316406 -0.566406 11.265625 -0.734375 C 11.222656 -0.898438 11.207031 -1.097656 11.21875 -1.328125 C 11.238281 -1.554688 11.25 -1.820312 11.25 -2.125 C 11.25 -2.550781 11.238281 -2.878906 11.21875 -3.109375 C 11.207031 -3.335938 11.195312 -3.539062 11.1875 -3.71875 C 11.175781 -3.90625 11.15625 -4.097656 11.125 -4.296875 C 11.09375 -4.503906 11.050781 -4.800781 11 -5.1875 C 10.976562 -5.507812 10.941406 -5.769531 10.890625 -5.96875 C 10.847656 -6.175781 10.789062 -6.363281 10.71875 -6.53125 C 10.65625 -6.707031 10.5625 -6.878906 10.4375 -7.046875 C 10.3125 -7.222656 10.144531 -7.425781 9.9375 -7.65625 C 9.757812 -7.832031 9.59375 -7.976562 9.4375 -8.09375 C 9.289062 -8.207031 9.109375 -8.300781 8.890625 -8.375 C 8.660156 -8.414062 8.429688 -8.4375 8.203125 -8.4375 C 7.972656 -8.4375 7.769531 -8.347656 7.59375 -8.171875 C 7.445312 -8.035156 7.34375 -7.847656 7.28125 -7.609375 C 7.226562 -7.367188 7.195312 -7.109375 7.1875 -6.828125 C 7.175781 -6.554688 7.171875 -6.285156 7.171875 -6.015625 C 7.171875 -5.742188 7.160156 -5.515625 7.140625 -5.328125 C 7.097656 -5.078125 7.078125 -4.804688 7.078125 -4.515625 C 7.078125 -4.234375 7.078125 -3.96875 7.078125 -3.71875 C 7.078125 -3.46875 7.0625 -3.21875 7.03125 -2.96875 C 7.007812 -2.71875 7 -2.46875 7 -2.21875 C 7 -1.757812 7.015625 -1.390625 7.046875 -1.109375 C 7.085938 -0.828125 7.046875 -0.601562 6.921875 -0.4375 C 6.796875 -0.28125 6.546875 -0.171875 6.171875 -0.109375 C 5.796875 -0.0546875 5.195312 -0.0390625 4.375 -0.0625 C 4.101562 -0.0625 3.847656 -0.078125 3.609375 -0.109375 C 3.367188 -0.148438 3.097656 -0.160156 2.796875 -0.140625 C 2.546875 -0.117188 2.332031 -0.125 2.15625 -0.15625 C 1.988281 -0.1875 1.882812 -0.363281 1.84375 -0.6875 C 1.820312 -0.882812 1.816406 -1.128906 1.828125 -1.421875 C 1.835938 -1.722656 1.832031 -2 1.8125 -2.25 C 1.8125 -2.78125 1.828125 -3.3125 1.859375 -3.84375 C 1.890625 -4.375 1.90625 -4.90625 1.90625 -5.4375 C 1.9375 -5.957031 1.9375 -6.484375 1.90625 -7.015625 C 1.882812 -7.554688 1.875 -8.085938 1.875 -8.609375 C 1.925781 -9.609375 1.953125 -10.617188 1.953125 -11.640625 C 1.953125 -12.671875 1.914062 -13.6875 1.84375 -14.6875 C 1.800781 -15.21875 1.800781 -15.726562 1.84375 -16.21875 C 1.882812 -16.707031 1.894531 -17.210938 1.875 -17.734375 C 1.851562 -18.003906 1.832031 -18.273438 1.8125 -18.546875 C 1.789062 -18.828125 1.769531 -19.101562 1.75 -19.375 C 1.71875 -19.625 1.707031 -19.859375 1.71875 -20.078125 C 1.738281 -20.296875 1.75 -20.53125 1.75 -20.78125 C 1.75 -21.03125 1.738281 -21.28125 1.71875 -21.53125 C 1.707031 -21.78125 1.71875 -22.039062 1.75 -22.3125 C 1.75 -22.519531 1.734375 -22.769531 1.703125 -23.0625 C 1.679688 -23.363281 1.707031 -23.601562 1.78125 -23.78125 C 1.84375 -23.988281 1.984375 -24.144531 2.203125 -24.25 C 2.421875 -24.351562 2.671875 -24.421875 2.953125 -24.453125 C 3.242188 -24.484375 3.53125 -24.492188 3.8125 -24.484375 C 4.09375 -24.472656 4.328125 -24.46875 4.515625 -24.46875 Z M 4.515625 -24.46875 "/></g></g></g></svg>